<svg width="17" height="17" viewBox="0 0 17 17" fill="none" xmlns="http://www.w3.org/2000/svg">
<g clip-path="url(#clip0_114_2680)">
<path d="M10.3133 0.251221C9.2256 0.251221 8.1825 0.678421 7.41342 1.43884C6.64433 2.19926 6.21227 3.23062 6.21227 4.30602V6.56355H4.01768C3.90773 6.56355 3.81818 6.65122 3.81818 6.76081V9.74163C3.81818 9.85034 3.90685 9.93889 4.01768 9.93889H6.21227V16.054C6.21227 16.1627 6.30094 16.2512 6.41177 16.2512H9.42655C9.5365 16.2512 9.62606 16.1635 9.62606 16.054V9.93889H11.8401C11.9315 9.93889 12.0113 9.87752 12.0334 9.78985L12.7871 6.80903C12.7946 6.77994 12.7952 6.74957 12.7889 6.72021C12.7827 6.69086 12.7697 6.6633 12.7511 6.63963C12.7325 6.61596 12.7086 6.5968 12.6814 6.58362C12.6541 6.57044 12.6242 6.56357 12.5938 6.56355H9.62606V4.30602C9.62606 4.21679 9.64383 4.12843 9.67837 4.046C9.7129 3.96357 9.76352 3.88866 9.82733 3.82557C9.89114 3.76248 9.9669 3.71243 10.0503 3.67828C10.1336 3.64414 10.223 3.62656 10.3133 3.62656H12.6187C12.7286 3.62656 12.8182 3.53889 12.8182 3.4293V0.448481C12.8182 0.339769 12.7295 0.251221 12.6187 0.251221H10.3133Z" fill="black"/>
</g>
<defs>
<clipPath id="clip0_114_2680">
<rect width="16" height="16" fill="white" transform="translate(0.545471 0.105225)"/>
</clipPath>
</defs>
</svg>
