<svg width="17" height="17" viewBox="0 0 17 17" fill="none" xmlns="http://www.w3.org/2000/svg">
<path d="M8.81794 5.93823C8.24331 5.93823 7.69221 6.16651 7.28588 6.57283C6.87955 6.97916 6.65128 7.53026 6.65128 8.1049C6.65128 8.67953 6.87955 9.23063 7.28588 9.63696C7.69221 10.0433 8.24331 10.2716 8.81794 10.2716C9.39258 10.2716 9.94368 10.0433 10.35 9.63696C10.7563 9.23063 10.9846 8.67953 10.9846 8.1049C10.9846 7.53026 10.7563 6.97916 10.35 6.57283C9.94368 6.16651 9.39258 5.93823 8.81794 5.93823Z" fill="black"/>
<path fill-rule="evenodd" clip-rule="evenodd" d="M5.3315 2.15993C7.64885 1.90307 9.98749 1.90307 12.3048 2.15993C13.5708 2.30127 14.5915 3.29793 14.7402 4.5686C15.015 6.91837 15.015 9.29216 14.7402 11.6419C14.5915 12.9126 13.5708 13.9093 12.3055 14.0513C9.98794 14.3082 7.64907 14.3082 5.3315 14.0513C4.0655 13.9093 3.04484 12.9126 2.89617 11.6426C2.62132 9.29261 2.62132 6.91859 2.89617 4.5686C3.04484 3.29793 4.0655 2.30127 5.3315 2.15993ZM12.1515 4.10527C11.9747 4.10527 11.8051 4.17551 11.6801 4.30053C11.5551 4.42555 11.4848 4.59512 11.4848 4.77193C11.4848 4.94875 11.5551 5.11831 11.6801 5.24334C11.8051 5.36836 11.9747 5.4386 12.1515 5.4386C12.3283 5.4386 12.4979 5.36836 12.6229 5.24334C12.7479 5.11831 12.8182 4.94875 12.8182 4.77193C12.8182 4.59512 12.7479 4.42555 12.6229 4.30053C12.4979 4.17551 12.3283 4.10527 12.1515 4.10527ZM5.6515 8.10527C5.6515 7.26542 5.98513 6.45996 6.579 5.8661C7.17286 5.27223 7.97832 4.9386 8.81817 4.9386C9.65802 4.9386 10.4635 5.27223 11.0573 5.8661C11.6512 6.45996 11.9848 7.26542 11.9848 8.10527C11.9848 8.94512 11.6512 9.75057 11.0573 10.3444C10.4635 10.9383 9.65802 11.2719 8.81817 11.2719C7.97832 11.2719 7.17286 10.9383 6.579 10.3444C5.98513 9.75057 5.6515 8.94512 5.6515 8.10527Z" fill="black"/>
</svg>
