<svg width="17" height="17" viewBox="0 0 17 17" fill="none" xmlns="http://www.w3.org/2000/svg">
<g clip-path="url(#clip0_114_2682)">
<path d="M2.51812 0.251221C2.06725 0.251221 1.63485 0.437306 1.31603 0.768539C0.997222 1.09977 0.818115 1.54902 0.818115 2.01745C0.818115 2.48589 0.997222 2.93514 1.31603 3.26637C1.63485 3.5976 2.06725 3.78369 2.51812 3.78369C2.96898 3.78369 3.40139 3.5976 3.7202 3.26637C4.03901 2.93514 4.21812 2.48589 4.21812 2.01745C4.21812 1.54902 4.03901 1.09977 3.7202 0.768539C3.40139 0.437306 2.96898 0.251221 2.51812 0.251221ZM0.918115 5.23823C0.891594 5.23823 0.866158 5.24918 0.847404 5.26866C0.828651 5.28815 0.818115 5.31457 0.818115 5.34213V16.1473C0.818115 16.2047 0.862915 16.2512 0.918115 16.2512H4.11812C4.14464 16.2512 4.17007 16.2403 4.18883 16.2208C4.20758 16.2013 4.21812 16.1749 4.21812 16.1473V5.34213C4.21812 5.31457 4.20758 5.28815 4.18883 5.26866C4.17007 5.24918 4.14464 5.23823 4.11812 5.23823H0.918115ZM6.11812 5.23823C6.09159 5.23823 6.06616 5.24918 6.0474 5.26866C6.02865 5.28815 6.01812 5.31457 6.01812 5.34213V16.1473C6.01812 16.2047 6.06292 16.2512 6.11812 16.2512H9.31812C9.34464 16.2512 9.37007 16.2403 9.38883 16.2208C9.40758 16.2013 9.41812 16.1749 9.41812 16.1473V10.3291C9.41812 9.91582 9.57615 9.51942 9.85746 9.22716C10.1388 8.93489 10.5203 8.7707 10.9181 8.7707C11.3159 8.7707 11.6975 8.93489 11.9788 9.22716C12.2601 9.51942 12.4181 9.91582 12.4181 10.3291V16.1473C12.4181 16.2047 12.4629 16.2512 12.5181 16.2512H15.7181C15.7446 16.2512 15.7701 16.2403 15.7888 16.2208C15.8076 16.2013 15.8181 16.1749 15.8181 16.1473V8.98265C15.8181 6.9654 14.1301 5.38784 12.1981 5.56987C11.6003 5.62641 11.0148 5.7801 10.4629 6.02535L9.41812 6.49081V5.34213C9.41812 5.31457 9.40758 5.28815 9.38883 5.26866C9.37007 5.24918 9.34464 5.23823 9.31812 5.23823H6.11812Z" fill="black"/>
</g>
<defs>
<clipPath id="clip0_114_2682">
<rect width="16" height="16" fill="white" transform="translate(0.272705 0.105225)"/>
</clipPath>
</defs>
</svg>
