<svg width="24" height="17" viewBox="0 0 24 17" fill="none" xmlns="http://www.w3.org/2000/svg">
<path d="M15.3386 3.44455C14.8155 2.83759 14.5272 2.05811 14.5274 1.25122H12.1626V10.8957C12.1444 11.4176 11.9276 11.9119 11.5579 12.2746C11.1881 12.6373 10.6943 12.84 10.1805 12.8401C9.09375 12.8401 8.19069 11.9379 8.19069 10.8179C8.19069 9.48011 9.46109 8.47678 10.7698 8.889V6.43122C8.12946 6.07344 5.81824 8.15789 5.81824 10.8179C5.81824 13.4079 7.93048 15.2512 10.1728 15.2512C12.5759 15.2512 14.5274 13.2679 14.5274 10.8179V5.92567C15.4863 6.62555 16.6376 7.00106 17.8182 6.999V4.59567C17.8182 4.59567 16.3795 4.66567 15.3386 3.44455Z" fill="black"/>
</svg>
