<svg width="12" height="6" viewBox="0 0 12 6" fill="none" xmlns="http://www.w3.org/2000/svg">
<g id="Group 36">
<path id="Vector (Stroke)" fill-rule="evenodd" clip-rule="evenodd" d="M11.8243 2.57574C12.0586 2.81005 12.0586 3.18995 11.8243 3.42426L9.42426 5.82426C9.18995 6.05858 8.81005 6.05858 8.57574 5.82426C8.34142 5.58995 8.34142 5.21005 8.57574 4.97574L10.5515 3L8.57574 1.02426C8.34142 0.78995 8.34142 0.410051 8.57574 0.175736C8.81005 -0.0585787 9.18995 -0.0585787 9.42426 0.175736L11.8243 2.57574Z" fill="black"/>
<path id="Vector (Stroke)_2" fill-rule="evenodd" clip-rule="evenodd" d="M8.40002 2.9999C8.40002 3.33127 8.1314 3.5999 7.80002 3.5999L0.600025 3.5999C0.268654 3.5999 2.47955e-05 3.33127 2.47955e-05 2.9999C2.47955e-05 2.66853 0.268654 2.3999 0.600025 2.3999L7.80002 2.3999C8.1314 2.3999 8.40002 2.66853 8.40002 2.9999Z" fill="black"/>
</g>
</svg>
