<svg width="64" height="44" viewBox="0 0 64 44" fill="none" xmlns="http://www.w3.org/2000/svg">
<path id="309422770_519067693560014_5922208825798366023_n 1 (Traced)" fill-rule="evenodd" clip-rule="evenodd" d="M19.6102 11.5564L7.65884 23.1087L8.5229 23.1168L9.38696 23.1248L14.983 17.7197C18.0608 14.7469 20.5883 12.3147 20.5998 12.3147C20.6112 12.3147 21.1935 12.868 21.8938 13.5443L23.1671 14.7738L23.2975 14.6539C23.6265 14.3511 24.0124 13.9612 24.0118 13.932C24.0114 13.9143 23.4487 13.3572 22.7614 12.6939C22.0741 12.0306 21.5117 11.4711 21.5117 11.4505C21.5117 11.397 31.5417 1.71688 31.5971 1.71688C31.6224 1.71688 32.2052 2.26036 32.8923 2.9246C33.5794 3.58885 34.1531 4.13233 34.1672 4.13233C34.199 4.13233 35.0156 3.34719 35.0156 3.31657C35.0156 3.28668 31.6069 -0.00527745 31.5815 6.35381e-06C31.5705 0.00227084 26.1834 5.20268 19.6102 11.5564ZM30.8504 9.05566C28.0867 11.7277 25.8255 13.9217 25.8255 13.9311C25.8255 13.9509 26.6323 14.7301 26.6527 14.7301C26.6602 14.7301 28.7413 12.7261 31.2774 10.2766C33.8134 7.82722 35.8959 5.82315 35.9051 5.82315C35.9143 5.82315 39.9452 9.70949 44.8627 14.4594L53.8036 23.0957L54.6469 23.1022C55.1108 23.1058 55.4903 23.1065 55.4903 23.1037C55.4903 23.0855 35.9134 4.19317 35.8964 4.19501C35.8848 4.19628 33.614 6.38356 30.8504 9.05566ZM24.486 15.2049L24.0688 15.6133L27.9405 19.3536L31.8121 23.094L32.6637 23.1013C33.132 23.1054 33.5149 23.1087 33.5146 23.1087C33.5142 23.1087 31.5766 21.2385 29.2086 18.9527L24.9033 14.7966L24.486 15.2049ZM19.7364 19.795L16.3064 23.1087H17.149H17.9917L21.002 20.2011C22.6578 18.6019 24.0124 17.284 24.0124 17.2723C24.0124 17.2607 23.928 17.1719 23.8249 17.075C23.7217 16.9782 23.6373 16.8865 23.6373 16.8713C23.6373 16.8561 23.6162 16.8436 23.5904 16.8436C23.5647 16.8436 23.5436 16.8233 23.5436 16.7984C23.5436 16.7734 23.5323 16.7531 23.5185 16.7531C23.5048 16.7531 23.4309 16.6922 23.3544 16.6178C23.2779 16.5434 23.2043 16.4823 23.1908 16.4819C23.1774 16.4816 21.6228 17.9725 19.7364 19.795ZM50.9421 29.3193C50.658 29.3461 50.2134 29.4218 50.0981 29.4628C50.0637 29.4751 49.9582 29.5092 49.8637 29.5386C49.7105 29.5862 49.5049 29.6766 49.2687 29.8003C49.0144 29.9335 48.6792 30.235 48.5152 30.478C48.417 30.6236 48.3007 30.8637 48.3007 30.9211C48.3007 30.9435 48.2883 30.9749 48.2731 30.9907C48.2186 31.0473 48.1627 31.4175 48.1639 31.7138C48.166 32.1804 48.251 32.4822 48.4747 32.8158C48.6259 33.0414 48.728 33.1505 48.9259 33.2981C49.0033 33.3558 49.0736 33.4102 49.0822 33.4189C49.1118 33.449 49.2229 33.512 49.2776 33.5298C49.3077 33.5395 49.3323 33.5569 49.3323 33.5684C49.3323 33.5799 49.4095 33.6225 49.5039 33.663C49.5982 33.7036 49.6756 33.7469 49.6758 33.7594C49.6759 33.7718 49.6973 33.782 49.7232 33.782C49.749 33.782 49.841 33.815 49.9276 33.8554C50.0142 33.8957 50.1267 33.9376 50.1775 33.9483C50.2284 33.9591 50.27 33.9805 50.27 33.9957C50.27 34.0111 50.2977 34.0236 50.3315 34.0236C50.3653 34.0236 50.4391 34.0426 50.4956 34.0659C50.552 34.0892 50.6826 34.1318 50.7858 34.1607C50.889 34.1896 51.0015 34.2229 51.0359 34.2349C51.0703 34.2469 51.1758 34.278 51.2703 34.3042C51.7066 34.4248 52.1035 34.5441 52.153 34.5694C52.1828 34.5847 52.2229 34.5972 52.242 34.5972C52.2611 34.5972 52.3282 34.619 52.3909 34.6456C52.4537 34.6722 52.5332 34.7051 52.5676 34.7187C52.6804 34.7633 53.0977 34.9601 53.1596 34.9979C53.2819 35.0726 53.5705 35.3701 53.6204 35.4728C53.6487 35.5309 53.6885 35.6337 53.7089 35.7012L53.7459 35.8238L53.7307 36.0031C53.697 36.3995 53.6055 36.6036 53.3514 36.8491C53.2081 36.9875 52.9014 37.1636 52.8037 37.1636C52.7684 37.1636 52.7395 37.1738 52.7394 37.1863C52.7394 37.1987 52.6304 37.2337 52.4972 37.2639L52.255 37.319L51.8195 37.3395L51.3841 37.3601L51.0381 37.3261C50.6896 37.2918 50.3701 37.2385 50.2544 37.1954C50.22 37.1826 50.1075 37.1471 50.0043 37.1164C49.9012 37.0858 49.7957 37.0506 49.7699 37.0381C49.7441 37.0256 49.6175 36.9667 49.4886 36.9071C49.2205 36.7834 49.1892 36.7658 48.9733 36.6168L48.8153 36.5078L48.7768 36.5476C48.7557 36.5695 48.7383 36.6016 48.7383 36.6189C48.7383 36.6362 48.7271 36.6504 48.7134 36.6504C48.6996 36.6504 48.6539 36.7043 48.6118 36.7703C48.5696 36.8363 48.5246 36.8906 48.5117 36.8911C48.4988 36.8915 48.4883 36.9123 48.4883 36.9372C48.4883 36.9621 48.4746 36.9825 48.4578 36.9825C48.4411 36.9825 48.4073 37.0198 48.3829 37.0655C48.3584 37.1112 48.2949 37.1961 48.2419 37.2542C48.1313 37.3753 48.1219 37.4265 48.1991 37.4858C48.3469 37.5994 48.7102 37.8268 48.8634 37.9016C48.9579 37.9478 49.062 37.999 49.0946 38.0154C49.1833 38.0601 49.5534 38.1945 49.6605 38.2209C49.7121 38.2337 49.8387 38.267 49.9418 38.295C50.7606 38.5174 52.2024 38.5338 52.9907 38.3298C53.1825 38.2801 53.3497 38.2282 53.4428 38.1894C53.7294 38.0699 53.8201 38.0289 53.8336 38.0127C53.8422 38.0024 53.8974 37.968 53.9564 37.9362C54.0921 37.8631 54.1741 37.7976 54.4185 37.567C54.5266 37.465 54.615 37.3665 54.615 37.3481C54.615 37.3297 54.6282 37.3146 54.6442 37.3146C54.6602 37.3146 54.6832 37.284 54.6953 37.2467C54.7074 37.2093 54.7261 37.1719 54.7369 37.1636C54.7477 37.1553 54.7946 37.0722 54.841 36.979C54.9285 36.8033 54.9721 36.6622 55.0265 36.3786L55.0583 36.2126L55.0447 35.7658L55.031 35.319L54.9949 35.2842C54.9751 35.2651 54.9588 35.2216 54.9587 35.1875C54.9586 35.1535 54.9375 35.0867 54.9118 35.0391C54.8861 34.9915 54.8651 34.9399 54.8651 34.9245C54.8651 34.8661 54.6332 34.5493 54.4679 34.3819C54.3734 34.2862 54.1813 34.1334 54.041 34.0423C53.7873 33.8775 53.4295 33.6914 53.3664 33.6914C53.3483 33.6914 53.3334 33.6778 53.3334 33.6612C53.3334 33.6446 53.3203 33.631 53.3042 33.631C53.2881 33.631 53.2354 33.6154 53.187 33.5963C53.0522 33.5431 52.6067 33.3883 52.5363 33.3703C52.5019 33.3615 52.4457 33.3439 52.4113 33.3313C52.2411 33.2688 52.0209 33.2083 51.9635 33.2083C51.9281 33.2083 51.8915 33.1963 51.8821 33.1816C51.8727 33.1669 51.7995 33.1454 51.7194 33.1338C51.6393 33.1222 51.5512 33.1011 51.5236 33.0868C51.496 33.0726 51.3891 33.0385 51.2859 33.0111C51.1828 32.9837 51.0655 32.9487 51.0252 32.9332C50.985 32.9178 50.8654 32.8778 50.7595 32.8444C50.5824 32.7885 50.2893 32.667 50.1763 32.6026C50.1505 32.588 50.0823 32.5531 50.0249 32.5251C49.8994 32.4639 49.5823 32.1643 49.5823 32.1068C49.5823 32.0844 49.5648 32.0604 49.5433 32.0534L49.5042 32.0409V31.7243V31.4078L49.5941 31.2357L49.6841 31.0637L49.8598 30.9083C50.1099 30.6873 50.3932 30.5688 50.8952 30.4754L51.1297 30.4317L51.5856 30.4312L52.0416 30.4306L52.3358 30.4736C52.6742 30.523 52.8486 30.5626 53.1771 30.6643C53.443 30.7466 53.9747 30.9901 54.0666 31.0717C54.1002 31.1015 54.1422 31.1212 54.1599 31.1155C54.1958 31.104 54.5213 30.6496 54.5213 30.611C54.5213 30.5976 54.5318 30.582 54.5447 30.5765C54.5827 30.5602 54.8338 30.183 54.8338 30.1423C54.8338 30.1217 54.8163 30.0965 54.7948 30.0862C54.7733 30.076 54.7135 30.041 54.6619 30.0086C54.5094 29.9126 54.019 29.6893 53.8336 29.6315C53.739 29.602 53.64 29.5676 53.6136 29.5551C53.5871 29.5425 53.5027 29.5222 53.426 29.51C53.3493 29.4977 53.2725 29.4775 53.2553 29.4649C53.2381 29.4524 53.1607 29.4346 53.0833 29.4253C53.006 29.4161 52.8653 29.3945 52.7708 29.3772C52.3004 29.2915 51.5044 29.2662 50.9421 29.3193ZM59.1007 29.3173C58.8138 29.3465 58.3694 29.4229 58.2567 29.4625C58.2223 29.4746 58.1098 29.5128 58.0066 29.5474C57.691 29.6532 57.602 29.6893 57.559 29.7286C57.5363 29.7493 57.4976 29.7663 57.473 29.7663C57.4484 29.7663 57.4283 29.7799 57.4283 29.7965C57.4283 29.8131 57.4132 29.8267 57.3947 29.8267C57.3437 29.8267 57.0226 30.0744 56.8806 30.2232C56.7423 30.3683 56.5531 30.6422 56.5531 30.6974C56.5531 30.7167 56.5419 30.7325 56.5283 30.7325C56.5043 30.7325 56.4402 30.9095 56.3652 31.1829C56.3451 31.2562 56.3216 31.4397 56.3129 31.5905L56.2972 31.8647L56.3298 32.0308C56.4114 32.4471 56.477 32.6141 56.6614 32.8743C56.7767 33.0371 57.1038 33.3516 57.1832 33.3759C57.2149 33.3856 57.2408 33.4062 57.2408 33.4217C57.2408 33.4372 57.2619 33.4499 57.2877 33.4499C57.3135 33.4499 57.3346 33.4632 57.3346 33.4795C57.3346 33.4958 57.3697 33.5176 57.4127 33.528C57.4557 33.5385 57.4909 33.5565 57.4909 33.5681C57.4909 33.5798 57.5681 33.6225 57.6625 33.663C57.7568 33.7036 57.8342 33.7454 57.8344 33.7561C57.8346 33.7667 57.8703 33.7841 57.9137 33.7946C57.9571 33.8051 58.0687 33.8474 58.1618 33.8885C58.2548 33.9296 58.3529 33.9632 58.3797 33.9632C58.4066 33.9632 58.4286 33.9767 58.4286 33.9934C58.4286 34.01 58.4563 34.0236 58.4901 34.0236C58.5239 34.0236 58.5978 34.0427 58.6542 34.0661C58.7107 34.0896 58.8835 34.1454 59.0382 34.1903C59.1929 34.2351 59.3763 34.2907 59.4456 34.3138C59.5149 34.3368 59.5953 34.3557 59.6243 34.3557C59.6532 34.3557 59.7231 34.3747 59.7795 34.398C59.836 34.4213 59.9666 34.4637 60.0697 34.4923C60.1729 34.521 60.2817 34.5562 60.3116 34.5708C60.3414 34.5853 60.3815 34.5972 60.4006 34.5972C60.4197 34.5972 60.4797 34.616 60.5339 34.6389C60.5881 34.6619 60.6887 34.7036 60.7574 34.7317C61.124 34.8815 61.4525 35.0778 61.6044 35.2378C61.6404 35.2757 61.7107 35.3679 61.7607 35.4426L61.8515 35.5785L61.8512 35.971L61.851 36.3635L61.7473 36.542C61.6902 36.6402 61.5792 36.781 61.5006 36.8548C61.3529 36.9934 61.0515 37.1636 60.9537 37.1636C60.9231 37.1636 60.8981 37.1742 60.8981 37.187C60.8981 37.1999 60.7782 37.2358 60.6316 37.2668L60.3652 37.3233L59.9517 37.3416L59.5383 37.3599L59.1945 37.326C58.8478 37.2917 58.5284 37.2384 58.413 37.1954C58.3786 37.1826 58.2661 37.1471 58.1629 37.1164C58.0598 37.0858 57.9543 37.0509 57.9285 37.0388C57.9027 37.0267 57.7831 36.9729 57.6628 36.9193C57.4411 36.8204 57.0215 36.5749 56.9881 36.5245C56.9668 36.4924 56.303 37.3568 56.303 37.4167C56.303 37.458 56.3176 37.47 56.6156 37.6726C56.8156 37.8087 57.138 37.9789 57.1957 37.9789C57.2176 37.9789 57.2403 37.9897 57.246 38.0029C57.2647 38.0461 57.7819 38.2176 58.2723 38.3432C58.4807 38.3966 58.8214 38.4364 59.2726 38.4602L59.7259 38.484L60.1635 38.4594C60.9453 38.4156 61.2508 38.3454 61.8818 38.0649C62.0807 37.9764 62.3272 37.8063 62.5092 37.6318C62.6694 37.4781 62.8674 37.2458 62.8674 37.2115C62.8674 37.2011 62.9005 37.142 62.941 37.08C62.9815 37.0181 63.0246 36.9334 63.0368 36.8919C63.0489 36.8504 63.0709 36.7892 63.0855 36.756C63.1002 36.7228 63.1345 36.6045 63.1617 36.4932L63.2113 36.2907V35.929V35.5672L63.1507 35.3223C63.1174 35.1876 63.0383 34.976 62.9749 34.8521L62.8597 34.627L62.6526 34.4199C62.5386 34.306 62.3571 34.1507 62.2492 34.0747C62.0029 33.9014 61.32 33.5788 60.9294 33.4513C60.766 33.3979 60.6043 33.3438 60.5699 33.3309C60.5355 33.3179 60.43 33.2861 60.3354 33.2602C60.2409 33.2343 60.0881 33.1916 59.9958 33.1654C59.9036 33.1392 59.8084 33.1178 59.7844 33.1178C59.7603 33.1178 59.7162 33.105 59.6864 33.0893C59.6565 33.0737 59.5477 33.0386 59.4446 33.0114C59.1124 32.9236 58.3145 32.6286 58.2723 32.578C58.2637 32.5676 58.2075 32.5328 58.1473 32.5006C58.0263 32.4358 57.8135 32.2385 57.7384 32.1214C57.7117 32.0799 57.6732 31.9712 57.6527 31.8798L57.6155 31.7138L57.6577 31.5014L57.6998 31.289L57.7906 31.1542C58.035 30.7911 58.3955 30.5953 59.0382 30.4767L59.2883 30.4306H59.7442H60.2002L60.4944 30.4734C60.6563 30.4969 60.859 30.5323 60.945 30.5519C61.1812 30.6059 61.6625 30.7678 61.6744 30.7972C61.6801 30.8114 61.7065 30.8231 61.7329 30.8231C61.7916 30.8231 62.1386 30.9992 62.2237 31.0722C62.2576 31.1012 62.2964 31.125 62.31 31.125C62.3236 31.125 62.4431 30.9654 62.5755 30.7702C62.7078 30.5751 62.8277 30.4109 62.8418 30.4054C62.8559 30.3999 62.8674 30.3823 62.8674 30.3664C62.8674 30.3506 62.8985 30.2969 62.9365 30.2473L63.0055 30.1571L62.927 30.09C62.8838 30.0532 62.8211 30.0063 62.7876 29.9859C62.7212 29.9454 62.2958 29.7456 62.1954 29.7077C62.161 29.6947 62.0796 29.6618 62.0145 29.6346C61.9495 29.6074 61.8754 29.5852 61.85 29.5852C61.8246 29.5852 61.7793 29.5721 61.7495 29.5562C61.6446 29.5002 60.9727 29.3711 60.6324 29.3417C60.1463 29.2996 59.3933 29.2876 59.1007 29.3173ZM4.47554 29.5357C4.47554 29.5601 4.46501 29.5846 4.4521 29.5902C4.43147 29.599 4.33116 29.7885 4.16705 30.1286C4.13901 30.1868 4.10553 30.2388 4.09262 30.2444C4.07971 30.2499 4.06918 30.2666 4.06918 30.2814C4.06918 30.3101 3.78359 30.8884 3.7569 30.9137C3.74811 30.922 3.7176 30.9763 3.68907 31.0344C3.60573 31.2042 2.09698 34.1549 2.06807 34.2047C2.05359 34.2296 1.96169 34.4062 1.86382 34.5972C1.76595 34.7882 1.39221 35.5167 1.03324 36.2162C0.674288 36.9157 0.380609 37.5022 0.380609 37.5196C0.380609 37.5369 0.370075 37.5556 0.357165 37.5612C0.322936 37.5759 -0.0172866 38.2487 0.000687309 38.2661C0.00906473 38.2742 0.323218 38.2808 0.698826 38.2808H1.38171L1.45164 38.1374C1.49009 38.0585 1.52885 37.9872 1.53772 37.9789C1.56598 37.9525 1.84978 37.3797 1.84978 37.349C1.84978 37.3329 1.86032 37.3151 1.87323 37.3096C1.88614 37.304 1.95053 37.1942 2.01636 37.0655L2.13609 36.8315H4.62921H7.12234L7.20915 37.0051C7.25688 37.1006 7.31896 37.2263 7.34709 37.2844C7.37522 37.3425 7.40551 37.3969 7.41439 37.4052C7.44137 37.4304 7.63271 37.8246 7.63271 37.8549C7.63271 37.8705 7.64324 37.8878 7.65615 37.8933C7.66906 37.8988 7.72179 37.9849 7.77337 38.0845L7.86715 38.2657L8.56266 38.2738L9.25817 38.2819V38.2447C9.25817 38.2243 8.69551 37.1174 8.00781 35.785C7.32011 34.4526 6.75745 33.3481 6.75745 33.3307C6.75745 33.3132 6.74339 33.2989 6.72619 33.2989C6.709 33.2989 6.69493 33.2851 6.69493 33.2683C6.69493 33.24 6.44702 32.7377 6.38222 32.6347C6.36653 32.6098 6.15528 32.2021 5.91277 31.7289C5.67023 31.2556 5.46014 30.848 5.44586 30.8231C5.4316 30.7982 5.27424 30.4925 5.09622 30.1437L4.7725 29.5097L4.62402 29.5005L4.47554 29.4913V29.5357ZM10.5163 33.8801L10.5242 38.2657L12.3064 38.2735L14.0887 38.2813L14.4946 38.2369C14.7178 38.2126 14.9919 38.1726 15.1036 38.1482C15.5182 38.0575 15.6201 38.0317 15.6506 38.0097C15.6678 37.9973 15.7217 37.978 15.7704 37.9667C15.8191 37.9555 15.9643 37.8993 16.0931 37.8418C16.2219 37.7843 16.333 37.7373 16.3401 37.7373C16.3471 37.7373 16.4481 37.6811 16.5644 37.6124C17.2651 37.1985 17.8583 36.5789 18.1647 35.9408C18.3193 35.619 18.3425 35.5629 18.402 35.3671C18.4324 35.2675 18.4686 35.152 18.4825 35.1105C18.4964 35.069 18.5317 34.9127 18.5608 34.7633L18.6138 34.4915L18.6136 33.8726L18.6134 33.2536L18.5623 33.0121C18.4829 32.6365 18.3703 32.2529 18.301 32.1214C18.2791 32.0799 18.2611 32.0348 18.261 32.0214C18.2607 31.9816 18.0927 31.6569 18.05 31.6135C18.0284 31.5916 18.0107 31.5542 18.0107 31.5305C18.0107 31.5067 17.9966 31.4873 17.9794 31.4873C17.9623 31.4873 17.9482 31.4732 17.9482 31.4559C17.9482 31.4289 17.8383 31.2601 17.7917 31.2156C17.783 31.2073 17.734 31.1461 17.6827 31.0797C17.5639 30.9258 17.2544 30.6274 17.0727 30.4917C16.9955 30.434 16.9252 30.3797 16.9166 30.371C16.8517 30.305 16.3049 30.0088 16.0806 29.9181C15.7339 29.7779 15.7291 29.7761 15.5569 29.7256C15.1708 29.6123 15.0473 29.5869 14.5878 29.5262L14.369 29.4972L12.4387 29.4959L10.5083 29.4946L10.5163 33.8801ZM20.5504 33.8784L20.5583 38.2657L22.3406 38.2735L24.1228 38.2813L24.5287 38.2369C25.063 38.1784 25.4838 38.0918 25.6453 38.0073C25.6751 37.9917 25.7222 37.9789 25.75 37.9789C25.81 37.9789 25.9324 37.9281 26.31 37.7467C26.6655 37.5759 26.8888 37.4464 26.9508 37.375C26.9594 37.3651 27.0156 37.3246 27.0758 37.285C27.2161 37.1927 27.6536 36.76 27.7559 36.6126C27.799 36.5504 27.8449 36.4994 27.8578 36.4994C27.8707 36.4994 27.8895 36.4756 27.8996 36.4466C27.9178 36.3943 27.9829 36.287 28.0141 36.2578C28.0547 36.22 28.3269 35.6489 28.3883 35.4728C28.4873 35.189 28.5755 34.8386 28.5759 34.7275C28.5761 34.6746 28.5912 34.5935 28.6094 34.5472L28.6425 34.4631L28.6436 33.9243C28.6447 33.4213 28.6309 33.2727 28.5439 32.846C28.5253 32.7547 28.5021 32.6392 28.4923 32.5894C28.4826 32.5396 28.4639 32.4852 28.4509 32.4686C28.4378 32.452 28.4167 32.3913 28.404 32.3337C28.3912 32.2761 28.3705 32.2082 28.3581 32.1828C28.3456 32.1573 28.3141 32.0889 28.288 32.0308C28.1885 31.8089 28.0356 31.5288 27.9636 31.4365C27.9223 31.3836 27.8883 31.3293 27.8881 31.3157C27.8878 31.3022 27.8491 31.2487 27.8021 31.1969C27.7551 31.1451 27.6604 31.0374 27.5916 30.9576C27.5228 30.8777 27.4049 30.757 27.3294 30.6894C27.254 30.6218 27.1741 30.5495 27.1519 30.5287C27.1297 30.5079 27.0965 30.491 27.078 30.491C27.0596 30.491 27.0446 30.4785 27.0446 30.4632C27.0446 30.448 26.9918 30.4044 26.9273 30.3664C26.8629 30.3284 26.8054 30.2865 26.7997 30.2733C26.794 30.2602 26.7694 30.2494 26.745 30.2494C26.7207 30.2494 26.7007 30.2367 26.7007 30.2212C26.7007 30.2057 26.6691 30.1836 26.6304 30.1719C26.5917 30.1602 26.553 30.1423 26.5444 30.1321C26.5091 30.0902 26.0003 29.8667 25.7473 29.782C25.6614 29.7533 25.5629 29.7193 25.5285 29.7066C25.4941 29.6939 25.3535 29.6602 25.2159 29.6317C25.0784 29.6032 24.9096 29.5652 24.8408 29.5471L24.7158 29.5143L22.6291 29.5027L20.5425 29.4911L20.5504 33.8784ZM30.272 33.8801L30.2799 38.2657L30.8425 38.2743C31.152 38.279 31.4369 38.2754 31.4755 38.2661L31.5459 38.2494V37.1631V36.0767H32.9143H34.2827L34.4739 36.2508C34.5791 36.3466 34.7068 36.4587 34.7577 36.4999C34.948 36.6541 35.3135 36.9715 35.436 37.0889C35.5056 37.1558 35.6016 37.2395 35.6492 37.2749C35.6968 37.3103 35.8515 37.4418 35.993 37.5671C36.4124 37.9384 36.4925 38.0081 36.6601 38.1478L36.8198 38.2808H37.6317C38.0783 38.2808 38.4528 38.272 38.464 38.2612C38.4751 38.2504 38.4556 38.2176 38.4206 38.1883C38.327 38.1099 37.8449 37.6831 37.6725 37.526C37.5905 37.4512 37.421 37.3018 37.2959 37.1938C37.1709 37.0859 37.007 36.9398 36.9318 36.8693C36.8565 36.7987 36.7885 36.7409 36.7806 36.7409C36.7726 36.7409 36.7125 36.69 36.647 36.6277C36.5814 36.5655 36.4098 36.4126 36.2655 36.288C36.1212 36.1635 35.9392 36.0017 35.8611 35.9284L35.7189 35.7952L35.7559 35.7831C35.7762 35.7765 35.9112 35.7128 36.0558 35.6415C36.9829 35.1846 37.6073 34.3652 37.772 33.3895C37.7874 33.2982 37.8081 33.0753 37.8181 32.8943L37.8362 32.5652L37.799 32.3358C37.7512 32.0405 37.6769 31.7393 37.6221 31.6186C37.5983 31.5663 37.5789 31.5089 37.5789 31.491C37.5789 31.4495 37.4348 31.1921 37.2811 30.9589C37.1305 30.7306 36.6847 30.2973 36.4346 30.1362C36.2463 30.015 35.7484 29.7663 35.6939 29.7663C35.6785 29.7663 35.6215 29.7473 35.5674 29.7241C35.4034 29.6538 35.0807 29.5797 34.703 29.5256L34.4998 29.4965L32.382 29.4956L30.264 29.4946L30.272 33.8801ZM40.1421 33.8878V38.2811L43.5259 38.2734L46.9097 38.2657V37.7222V37.1787L44.1508 37.171L41.3918 37.1633L41.4 35.8123L41.4081 34.4613L43.7916 34.4536L46.1751 34.4459V33.9177V33.3895H43.7838H41.3925V31.9855V30.5815H44.1589H46.9253V30.0381V29.4946H43.5337H40.1421V33.8878ZM14.3925 30.6277C14.7361 30.6825 15.0763 30.7622 15.1177 30.7977C15.134 30.8116 15.174 30.8231 15.2066 30.8231C15.2392 30.8231 15.3032 30.8419 15.3489 30.8649C15.3945 30.8878 15.4881 30.932 15.5569 30.963C15.6256 30.994 15.6889 31.0261 15.6975 31.0344C15.7061 31.0427 15.7624 31.0752 15.8226 31.1067C16.1006 31.2519 16.4832 31.5758 16.6826 31.8345C16.7337 31.901 16.7827 31.9621 16.7914 31.9704C16.8552 32.0314 17.1303 32.5704 17.1689 32.7101C17.1826 32.76 17.2252 32.9094 17.2634 33.0423L17.3329 33.2838L17.3323 33.8877L17.3316 34.4915L17.2676 34.718C17.1433 35.1576 16.9149 35.6842 16.8486 35.6842C16.8344 35.6842 16.8229 35.6987 16.8229 35.7164C16.8229 35.8374 16.0448 36.59 15.9197 36.59C15.9007 36.59 15.8851 36.6003 15.8851 36.613C15.8851 36.6374 15.8767 36.642 15.5668 36.7898C15.3307 36.9024 14.9235 37.0413 14.7285 37.0757C14.6511 37.0893 14.5175 37.1139 14.4315 37.1302L14.2752 37.16L13.0171 37.1618L11.7589 37.1636V33.8927C11.7589 32.0937 11.7683 30.6127 11.7797 30.6017C11.7912 30.5906 12.3187 30.5815 12.9519 30.5815H14.1033L14.3925 30.6277ZM24.4813 30.6413C25.0173 30.7359 25.1998 30.7913 25.587 30.9768C26.0161 31.1826 26.1064 31.2449 26.4353 31.5625C26.7182 31.8358 26.8132 31.956 26.9689 32.2378C27.1994 32.655 27.284 32.9308 27.3593 33.5103L27.3927 33.7669L27.3742 34.0688C27.3349 34.7084 27.1765 35.2221 26.876 35.6842C26.6555 36.0234 26.347 36.3312 26.013 36.5453C25.8841 36.628 25.7739 36.7058 25.7682 36.7183C25.7624 36.7307 25.7399 36.7409 25.7181 36.7409C25.6963 36.7409 25.6166 36.7722 25.541 36.8104C25.2622 36.9513 24.9281 37.0486 24.4344 37.1326C24.3485 37.1473 23.712 37.1602 23.02 37.1614L21.7618 37.1636V33.8927C21.7618 32.0937 21.7712 30.6127 21.7826 30.6017C21.7941 30.5906 22.3321 30.582 22.9783 30.5825L24.1531 30.5834L24.4813 30.6413ZM34.6093 30.6417C35.0277 30.7227 35.2032 30.7689 35.2032 30.798C35.2032 30.8118 35.2281 30.8231 35.2585 30.8231C35.3287 30.8231 35.7971 31.0863 35.7971 31.1257C35.7971 31.1419 35.811 31.1552 35.8281 31.1552C35.8564 31.1552 36.0125 31.3052 36.1699 31.4835C36.3245 31.6588 36.4846 32.0395 36.5524 32.3931L36.5842 32.5592L36.567 32.9064C36.5575 33.0974 36.5297 33.3216 36.5051 33.4046C36.4508 33.5883 36.2995 33.9141 36.262 33.9279C36.247 33.9335 36.2347 33.9564 36.2347 33.9789C36.2347 34.0443 35.7977 34.459 35.6095 34.5722C35.515 34.629 35.3743 34.7003 35.297 34.7306C35.2196 34.7609 35.1282 34.797 35.0938 34.8109C34.9865 34.8542 34.6363 34.9245 34.362 34.9578L34.0992 34.9897H32.8225H31.5459V32.7856V30.5815L32.9291 30.5829L34.3123 30.5842L34.6093 30.6417ZM4.76181 31.9938C4.91386 32.3238 5.05759 32.6273 5.26562 33.0574C5.32582 33.1819 5.40606 33.3518 5.44389 33.4348C5.48171 33.5178 5.5536 33.6684 5.60365 33.7693C5.6537 33.8702 5.69464 33.9688 5.69464 33.9882C5.69464 34.0076 5.70871 34.0236 5.7259 34.0236C5.7431 34.0236 5.75716 34.0435 5.75716 34.0678C5.75716 34.1224 5.85788 34.3369 5.89001 34.3506C5.90292 34.3562 5.91346 34.3739 5.91346 34.39C5.91346 34.4191 5.94475 34.4891 6.15431 34.9293C6.21361 35.0539 6.28366 35.2033 6.30998 35.2615C6.3363 35.3196 6.3985 35.4455 6.44824 35.5412C6.49797 35.6369 6.53864 35.7286 6.53864 35.745V35.7748H4.61621H2.69378V35.7295C2.69378 35.7046 2.70513 35.6842 2.71904 35.6842C2.73291 35.6842 2.77021 35.6264 2.8019 35.5559C2.86251 35.4209 2.97483 35.1816 3.1314 34.8538C3.18298 34.7458 3.22518 34.6439 3.22518 34.6273C3.22518 34.6108 3.23925 34.5972 3.25644 34.5972C3.27363 34.5972 3.2877 34.5777 3.2877 34.5537C3.2877 34.5298 3.34237 34.3973 3.40917 34.2593C3.47597 34.1213 3.56225 33.9405 3.60088 33.8575C3.81298 33.4017 4.06471 32.8714 4.30374 32.3768C4.34419 32.2931 4.38686 32.1878 4.39855 32.1428C4.41024 32.0978 4.42925 32.061 4.44081 32.061C4.45238 32.061 4.47776 32.0202 4.49724 31.9704L4.53262 31.8798L4.6213 31.8806L4.70999 31.8814L4.76181 31.9938ZM7.63271 41.9264C7.31289 41.9643 7.11584 42.0472 6.9321 42.2212C6.77577 42.3692 6.70919 42.4959 6.65877 42.7414L6.62007 42.9297L6.66042 43.1615C6.68259 43.289 6.72054 43.4125 6.74473 43.4358C6.76892 43.4592 6.78871 43.4927 6.78871 43.5103C6.78871 43.5559 7.03672 43.7867 7.14819 43.8448C7.26757 43.9071 7.56859 43.9872 7.68441 43.9875C7.73333 43.9877 7.8694 43.964 7.98678 43.935L8.20018 43.8821L8.29233 43.8064L8.38448 43.7306L8.30865 43.6402L8.23282 43.5498L8.17255 43.6025C8.13941 43.6315 8.097 43.6552 8.0783 43.6552C8.05958 43.6552 8.03923 43.6698 8.03304 43.6877L8.02179 43.7203L7.77062 43.737L7.51942 43.7536L7.37626 43.6924C7.17667 43.6072 7.05126 43.4902 6.96032 43.3046L6.88249 43.1456V42.956V42.7665L6.93363 42.6371C6.96176 42.566 6.99693 42.5078 7.01178 42.5078C7.02662 42.5078 7.03878 42.4936 7.03878 42.4762C7.03878 42.4343 7.18698 42.303 7.30449 42.2407C7.35606 42.2133 7.4686 42.1769 7.55456 42.1598L7.71085 42.1286L7.86333 42.1666C7.9472 42.1874 8.06405 42.232 8.123 42.2656C8.26073 42.3441 8.26542 42.3434 8.33037 42.2372L8.38508 42.1477L8.26679 42.0743C8.20171 42.034 8.07111 41.9852 7.97655 41.9659C7.74208 41.9181 7.72214 41.9158 7.63271 41.9264ZM39.5326 41.9285C39.3438 41.9482 39.1143 42.0293 39.0375 42.1035C38.9942 42.1453 38.9365 42.2427 38.9093 42.3198L38.8598 42.4601L38.907 42.5972L38.9543 42.7343L39.1034 42.8324C39.1854 42.8864 39.274 42.9305 39.3003 42.9305C39.3266 42.9305 39.3615 42.9418 39.3778 42.9556C39.3941 42.9694 39.4989 43.0058 39.6107 43.0364C40.0133 43.1467 40.1421 43.2459 40.1421 43.4455V43.5546L40.0405 43.6426L39.9389 43.7306H39.6263H39.3137L39.1887 43.6733C39.1199 43.6418 39.0551 43.6033 39.0446 43.5878L39.0255 43.5595L38.9604 43.6395C38.9245 43.6834 38.9018 43.736 38.9099 43.7563C38.932 43.8119 39.1027 43.8877 39.3241 43.9403C39.574 43.9996 39.6888 43.9994 39.9384 43.9388L40.1383 43.8903L40.2268 43.8105C40.3366 43.7114 40.383 43.6166 40.4024 43.4518L40.4174 43.3239L40.3501 43.1956L40.2828 43.0673L40.1577 42.9861C40.089 42.9414 40.0046 42.8984 39.9702 42.8906C39.9358 42.8827 39.8655 42.8624 39.8139 42.8456C39.7623 42.8287 39.6638 42.7986 39.5951 42.7786C39.4095 42.7249 39.2581 42.6549 39.1965 42.5943L39.1418 42.5406V42.4439V42.3471L39.2398 42.2627L39.3377 42.1782L39.477 42.158C39.6609 42.1314 39.9155 42.1621 40.0841 42.2314L40.2202 42.2874L40.2901 42.1962L40.3599 42.105L40.274 42.0545C40.1563 41.9854 39.7117 41.9098 39.5326 41.9285ZM43.2836 41.9193C43.2664 41.9237 43.168 41.945 43.0648 41.9666C42.6551 42.0524 42.4178 42.289 42.3104 42.7187L42.2562 42.9354L42.2961 43.1217C42.3495 43.3717 42.4298 43.5337 42.5717 43.6775C42.7119 43.8196 42.8187 43.8788 43.0471 43.941C43.2628 43.9998 43.4019 43.9994 43.611 43.9395C43.8961 43.8577 44.0238 43.7582 44.17 43.5042C44.215 43.4259 44.2995 43.0569 44.2995 42.9381L44.2996 42.8701H43.7974H43.2953L43.3051 42.9657L43.3149 43.0612L43.6639 43.0638C43.8559 43.0652 44.0237 43.0768 44.0368 43.0894C44.0499 43.1021 44.0354 43.1904 44.0044 43.2857L43.9481 43.4589L43.8229 43.5711C43.754 43.6328 43.6483 43.699 43.5879 43.7182L43.4783 43.7531L43.2495 43.739L43.0207 43.7248L42.9021 43.6406C42.751 43.5333 42.6135 43.3819 42.6124 43.3215C42.6119 43.2958 42.5957 43.2594 42.5762 43.2406L42.5408 43.2064L42.5401 42.9703L42.5394 42.7343L42.6086 42.5941C42.6838 42.4418 42.8242 42.3033 42.9905 42.2171L43.0961 42.1625L43.3618 42.1642L43.6275 42.1659L43.7806 42.2463C43.8648 42.2905 43.9427 42.3267 43.9536 42.3267C43.9646 42.3267 43.9975 42.2874 44.0268 42.2395L44.0801 42.1524L44.0413 42.1225C43.9114 42.0224 43.4074 41.8872 43.2836 41.9193ZM49.4417 41.9262C49.4073 41.9312 49.3009 41.9499 49.2053 41.9678L49.0316 42.0004L48.9375 42.0805C48.8248 42.1765 48.7383 42.3358 48.7383 42.4474C48.7383 42.5364 48.8165 42.7061 48.8929 42.7833C48.9544 42.8452 49.1264 42.9305 49.19 42.9305C49.2167 42.9305 49.2385 42.9441 49.2385 42.9607C49.2385 42.9773 49.2631 42.9909 49.2931 42.9909C49.3231 42.9909 49.4601 43.0271 49.5975 43.0713L49.8473 43.1516L49.9336 43.235L50.02 43.3184V43.3991C50.02 43.5172 49.9285 43.6472 49.8058 43.7034L49.6983 43.7527L49.4293 43.7382L49.1603 43.7237L49.0509 43.6691C48.9908 43.6391 48.9307 43.5999 48.9175 43.582L48.8934 43.5495L48.8482 43.6099C48.8233 43.6431 48.7882 43.6869 48.7701 43.7073L48.7372 43.7443L48.855 43.8155C48.9862 43.8947 49.3339 43.9873 49.5003 43.9873C49.5598 43.9873 49.6955 43.9658 49.8018 43.9395L49.9951 43.8916L50.0862 43.8133C50.2138 43.7034 50.27 43.5795 50.27 43.4079V43.2605L50.2169 43.1786C50.1098 43.0133 49.9961 42.9395 49.723 42.8579C49.1337 42.682 49.0197 42.6146 49.0197 42.4422V42.3471L49.1176 42.2627L49.2156 42.1782L49.3523 42.1584C49.5328 42.1322 49.8056 42.167 49.967 42.2368L50.0971 42.2931L50.158 42.2002L50.2188 42.1074L50.1594 42.0655C50.0574 41.9934 49.5956 41.9038 49.4417 41.9262ZM60.5699 41.9258C60.0579 41.9999 59.8689 42.1227 59.6738 42.5078L59.605 42.6437L59.6058 42.9607L59.6065 43.2778L59.6928 43.4392C59.8462 43.7262 60.0816 43.8878 60.4527 43.9609L60.6481 43.9994L60.8903 43.942C61.0235 43.9105 61.1396 43.8771 61.1482 43.8678C61.1568 43.8585 61.2165 43.817 61.281 43.7757C61.4231 43.6844 61.5795 43.4818 61.6058 43.3548C61.6164 43.3034 61.6374 43.2541 61.6523 43.2451C61.6673 43.2362 61.6796 43.109 61.6796 42.9624V42.6959L61.6329 42.6094C61.6072 42.5618 61.5861 42.4992 61.586 42.4701C61.5859 42.441 61.5717 42.4172 61.5545 42.4172C61.5373 42.4172 61.5233 42.3997 61.5233 42.3782C61.5233 42.3337 61.2954 42.1207 61.1816 42.0587C61.0394 41.9814 60.6982 41.9073 60.5699 41.9258ZM18.1045 41.9683C18.0443 41.9841 17.9458 42.0202 17.8857 42.0486C17.7645 42.1058 17.5106 42.3307 17.5106 42.3809C17.5106 42.3985 17.4924 42.4309 17.4703 42.4528C17.3717 42.5505 17.3235 43.0122 17.3873 43.2476C17.4261 43.3906 17.5148 43.5646 17.5489 43.5646C17.5622 43.5646 17.5731 43.5782 17.5731 43.5948C17.5731 43.6339 17.6888 43.7457 17.7294 43.7457C17.7466 43.7457 17.7606 43.7563 17.7606 43.7691C17.7606 43.8054 17.9451 43.8876 18.1514 43.9431L18.3389 43.9937L18.4796 43.9769C18.692 43.9515 18.9226 43.8756 19.0194 43.7991L19.1061 43.7306L19.0273 43.6429L18.9485 43.5552L18.8938 43.5989C18.8637 43.623 18.7982 43.6625 18.7482 43.6867L18.6573 43.7306L18.3887 43.7306L18.1201 43.7306L18.0263 43.6702C17.8492 43.5562 17.7645 43.4672 17.6801 43.3061L17.5956 43.1447L17.5969 42.9391L17.5983 42.7334L17.6769 42.5906C17.7714 42.4189 17.8908 42.3023 18.0556 42.221L18.1779 42.1606L18.4147 42.1614L18.6515 42.1621L18.8076 42.2464L18.9636 42.3306L19.0327 42.2469L19.1017 42.1633L19.0682 42.1242C19.0497 42.1027 19.0198 42.0851 19.0018 42.0851C18.9838 42.0851 18.9468 42.0671 18.9197 42.045C18.8034 41.9505 18.3389 41.9068 18.1045 41.9683ZM30.8894 42.0052C30.8121 42.0434 30.7306 42.1075 30.7084 42.1478L30.6681 42.221L30.6785 42.4303L30.6889 42.6395L30.7267 42.6517C30.7474 42.6584 30.7644 42.6816 30.7644 42.7034C30.7644 42.7251 30.7855 42.7507 30.8113 42.7603C30.8371 42.7698 30.8582 42.8023 30.8582 42.8325V42.8873L30.7566 42.9435C30.6079 43.0258 30.4899 43.158 30.4498 43.2873L30.4146 43.4009L30.4514 43.5329L30.4882 43.665L30.6028 43.7753L30.7175 43.8856L30.9611 43.9428L31.2046 44L31.43 43.9442C31.5539 43.9135 31.6888 43.8631 31.7298 43.8322C31.8284 43.7579 31.87 43.7612 31.9708 43.8514L32.0551 43.9269H32.1974H32.3397L32.1772 43.7732C32.0879 43.6887 32.0148 43.6079 32.0148 43.5935C32.0148 43.5548 32.0879 43.4011 32.1156 43.3817C32.1288 43.3725 32.1487 43.2604 32.1599 43.1326L32.1802 42.9003H32.0692H31.9583L31.9429 43.0438C31.9212 43.2458 31.8785 43.3921 31.8374 43.4053C31.8181 43.4115 31.6989 43.3209 31.5725 43.2039C31.4461 43.0869 31.3321 42.9911 31.3192 42.991C31.2473 42.9907 31.3149 42.8953 31.4354 42.8271C31.5122 42.7836 31.6106 42.7029 31.6542 42.6477L31.7334 42.5474V42.3777V42.208L31.6411 42.1065L31.5489 42.005L31.4265 41.9696C31.3592 41.9501 31.2425 41.9346 31.1671 41.935L31.0301 41.9358L30.8894 42.0052ZM4.26417 41.987C4.25148 41.9911 4.24413 42.4259 4.24785 42.9532L4.2546 43.9118L4.37964 43.921L4.50465 43.9303L4.51355 43.604L4.52243 43.2778L4.8283 43.2691L5.13417 43.2605L5.17312 43.2993C5.19456 43.3207 5.28168 43.4265 5.36674 43.5344C5.45179 43.6423 5.56264 43.7748 5.61303 43.8288L5.70468 43.9269H5.84144H5.97816L5.94753 43.8741C5.93068 43.845 5.88098 43.7818 5.83703 43.7335C5.79311 43.6852 5.75713 43.6377 5.7571 43.6278C5.75707 43.618 5.68724 43.5351 5.60187 43.4438C5.51653 43.3525 5.44623 43.2701 5.44564 43.2607C5.44504 43.2513 5.50256 43.2121 5.57342 43.1736C5.73397 43.0865 5.81909 42.9934 5.87167 42.8476C5.98692 42.5279 5.85035 42.1861 5.55398 42.0526L5.42894 41.9963L4.85809 41.9878C4.54412 41.9832 4.27686 41.9828 4.26417 41.987ZM9.1644 42.9424V43.9269H9.28943H9.41447V43.5042V43.0815H10.0231H10.6318L10.6405 43.4967L10.6492 43.9118L10.7664 43.9212L10.8836 43.9306V42.9625V41.9945H10.7899C10.7383 41.9945 10.6856 41.9911 10.6726 41.987C10.6597 41.9829 10.6422 42.1765 10.6336 42.4172L10.6179 42.855H10.024H9.4301L9.42144 42.4248L9.41275 41.9945H9.33801C9.2969 41.9945 9.24104 41.9863 9.21385 41.9762L9.1644 41.9579V42.9424ZM11.9543 41.9862L11.8527 41.9984V42.9626V43.9269H11.9621H12.0715V42.9456C12.0715 42.4059 12.068 41.9665 12.0637 41.9692C12.0594 41.9718 12.0102 41.9795 11.9543 41.9862ZM12.8217 42.0776L12.8217 42.1757H13.1656H13.5094V43.0513V43.9269H13.6344H13.7595V43.0513V42.1757H14.119H14.4784V42.0861V41.9965L13.65 41.988L12.8217 41.9794V42.0776ZM15.2362 41.987C15.2235 41.9911 15.2159 42.4259 15.2195 42.9532L15.2259 43.9118L15.9775 43.9199L16.7291 43.928V43.8224V43.7168L16.0961 43.7086L15.4631 43.7005L15.4542 43.3945L15.4454 43.0886L15.5278 43.0686C15.5731 43.0576 15.8162 43.0507 16.0681 43.0532L16.5259 43.0578L16.5357 42.9647L16.5454 42.8716L16.0042 42.8633L15.4631 42.855V42.5229V42.1908L16.0961 42.1826L16.7291 42.1745V42.0856V41.9967L15.9942 41.988C15.5901 41.9833 15.249 41.9828 15.2362 41.987ZM22.0119 42.6768V43.3799L22.0407 43.3971C22.0566 43.4066 22.0789 43.4555 22.0904 43.5058L22.1112 43.5973L22.261 43.742L22.4109 43.8868L22.5964 43.937C22.6984 43.9647 22.8307 43.9873 22.8904 43.9873C23.1071 43.9873 23.495 43.8068 23.5671 43.6723C23.5855 43.638 23.6263 43.5623 23.6576 43.5042L23.7147 43.3985L23.7244 42.689L23.7342 41.9794L23.6154 41.9826L23.4967 41.9857L23.481 42.677L23.4654 43.3683L23.4226 43.4438C23.3559 43.5617 23.1748 43.7068 23.0691 43.7272C22.7314 43.7924 22.4758 43.6978 22.329 43.4532L22.2781 43.3683L22.2622 42.6778L22.2463 41.9873L22.1291 41.9805L22.0119 41.9737V42.6768ZM24.6818 41.992C24.6747 41.999 24.6689 42.4371 24.6689 42.9658V43.9269H24.7929H24.9168L24.9257 43.6023L24.9346 43.2778L25.2404 43.2691L25.5463 43.2605L25.5843 43.2993C25.6164 43.3322 25.7677 43.5119 25.9092 43.6854C25.9295 43.7103 25.9835 43.7748 26.0293 43.8288L26.1124 43.9269H26.2502C26.3261 43.9269 26.3881 43.9143 26.3881 43.8989C26.3881 43.8834 26.3424 43.8224 26.2865 43.7632C26.2307 43.704 26.1357 43.5934 26.0755 43.5173C26.0154 43.4412 25.9416 43.3508 25.9116 43.3165L25.8572 43.2539L25.9116 43.214C25.9416 43.192 25.9815 43.1736 26.0003 43.173C26.047 43.1717 26.1818 43.0528 26.241 42.9607C26.2677 42.9192 26.2989 42.8223 26.3105 42.7454L26.3316 42.6056L26.2951 42.4359C26.2751 42.3426 26.2456 42.2663 26.2296 42.2663C26.2136 42.2663 26.2006 42.2508 26.2006 42.2319C26.2006 42.1874 26.1223 42.1283 25.9661 42.055L25.8411 41.9963L25.2679 41.9878C24.9527 41.9832 24.6889 41.9851 24.6818 41.992ZM27.2009 42.9537V43.928L27.9425 43.9199L28.6841 43.9118L28.6923 43.8137L28.7005 43.7156H28.0757H27.4509V43.4018V43.088L27.4923 43.0727C27.515 43.0642 27.7576 43.0565 28.0315 43.0555L28.5294 43.0537V42.9598V42.866L27.998 42.8605L27.4666 42.855L27.4577 42.5154L27.4489 42.1757H28.0747H28.7005L28.6929 42.0844L28.6852 41.9932L27.943 41.9863L27.2008 41.9794L27.2009 42.9537ZM36.7166 41.992C36.7095 41.999 36.7036 42.4371 36.7036 42.9658V43.9269H37.4538H38.204V43.8212V43.7156H37.5822H36.9604L36.9414 43.6678C36.931 43.6415 36.9224 43.5053 36.9224 43.3651V43.1102L37.0082 43.0787L37.094 43.0472L37.5553 43.0568L38.0166 43.0664L38.0165 42.9683L38.0165 42.8701H37.507H36.9974L36.9599 42.8339L36.9224 42.7977V42.5345C36.9224 42.3897 36.931 42.2497 36.9414 42.2235L36.9604 42.1757H37.5822H38.204V42.0776V41.9794H37.4669C37.0614 41.9794 36.7238 41.9851 36.7166 41.992ZM41.2362 42.9517V43.9269H41.3456H41.455V42.964V42.0012L41.3456 41.9888L41.2362 41.9765V42.9517ZM46.6546 42.0114C46.6468 42.031 46.6447 42.3342 46.65 42.6851L46.6596 43.3231L46.609 43.3231C46.5569 43.323 46.2689 43.0639 46.2689 43.0171C46.2689 43.0027 46.2574 42.9909 46.2434 42.9909C46.2102 42.9909 45.6749 42.4739 45.6749 42.4418C45.6749 42.4283 45.6627 42.4172 45.6478 42.4172C45.6124 42.4172 45.3311 42.1455 45.3311 42.1113C45.3311 42.0969 45.3115 42.0851 45.2876 42.0851C45.2636 42.0851 45.2359 42.0647 45.226 42.0398C45.2161 42.0149 45.1795 41.9945 45.1445 41.9945H45.081V42.9607V43.9269H45.2061H45.3311V43.2325V42.538H45.3752C45.4083 42.538 45.925 43.006 45.925 43.036C45.925 43.0579 46.8415 43.9269 46.8646 43.9269H46.8941V42.964V42.0012L46.7814 41.9884L46.6687 41.9757L46.6546 42.0114ZM53.2469 42.6874L53.2564 43.3985L53.3027 43.5042C53.3282 43.5623 53.3599 43.6235 53.3731 43.6401C53.5048 43.8056 53.5922 43.8643 53.8157 43.9371C54.0116 44.0009 54.1334 44.0004 54.369 43.9345L54.5579 43.8816L54.6724 43.7729C54.8295 43.6239 54.8427 43.6033 54.9046 43.411L54.9589 43.2422V42.6184V41.9945H54.8651C54.8135 41.9945 54.7608 41.9945 54.7479 41.9944C54.735 41.9943 54.7174 42.3034 54.7088 42.6813L54.6932 43.3683L54.6313 43.4589C54.5972 43.5087 54.5269 43.5864 54.475 43.6316L54.3806 43.7136L54.2461 43.7334C54.1721 43.7442 54.0384 43.7438 53.9491 43.7324L53.7867 43.7118L53.6583 43.5809L53.53 43.45L53.4942 43.3128L53.4585 43.1755V42.5884V42.0012L53.348 41.9887L53.2375 41.9762L53.2469 42.6874ZM55.9096 41.992C55.9025 41.999 55.8967 42.4391 55.8967 42.9701V43.9357L56.4359 43.9193L56.9751 43.9029L57.0689 43.8547C57.1204 43.8282 57.1802 43.8064 57.2017 43.8063C57.2232 43.8062 57.2408 43.7925 57.2408 43.7759C57.2408 43.7593 57.2544 43.7457 57.271 43.7457C57.324 43.7457 57.5044 43.5508 57.5658 43.4273C57.5984 43.3617 57.6371 43.2844 57.6518 43.2555C57.6664 43.2267 57.6784 43.0981 57.6784 42.9697V42.7363L57.6264 42.5994C57.5709 42.4534 57.4448 42.268 57.3718 42.2251C57.3474 42.2108 57.304 42.1768 57.2753 42.1496C57.2466 42.1225 57.1743 42.0805 57.1147 42.0564L57.0064 42.0126L56.4644 41.9961C56.1664 41.9869 55.9167 41.9851 55.9096 41.992ZM2.45102 42.1078C2.4212 42.1701 2.38738 42.2279 2.37584 42.2364C2.36431 42.2449 2.34521 42.289 2.33339 42.3345C2.32158 42.38 2.29935 42.4172 2.28403 42.4172C2.26869 42.4172 2.25615 42.4342 2.25615 42.455C2.25618 42.5027 2.06103 42.8818 2.02952 42.8953C2.01661 42.9009 2.00608 42.9182 2.00608 42.9339C2.00608 42.9787 1.56017 43.8502 1.5315 43.8615C1.51744 43.867 1.50593 43.8848 1.50593 43.9009V43.9302L1.65123 43.921L1.79649 43.9118L1.81968 43.8665C1.83247 43.8416 1.86876 43.7703 1.90033 43.708L1.95778 43.5948H2.53761H3.11743L3.1958 43.7533L3.27413 43.9118L3.42127 43.921L3.56837 43.9302L3.54752 43.8757C3.53608 43.8457 3.51858 43.8144 3.50864 43.8061C3.47832 43.7808 3.2877 43.3972 3.2877 43.3615C3.2877 43.3431 3.27717 43.3236 3.26426 43.318C3.23275 43.3045 3.0376 42.9254 3.03763 42.8777C3.03763 42.8569 3.02509 42.84 3.00974 42.84C2.99443 42.84 2.9722 42.8027 2.96039 42.7572C2.94857 42.7117 2.92922 42.6676 2.9174 42.6591C2.88805 42.6381 2.69378 42.2449 2.69378 42.2065C2.69378 42.1896 2.68084 42.1757 2.66499 42.1757C2.64917 42.1757 2.62695 42.1349 2.61563 42.0851L2.59503 41.9945H2.55011C2.52542 41.9945 2.48081 42.0455 2.45102 42.1078ZM19.6362 42.0851V42.1757H19.9957H20.3551V43.0513V43.9269H20.4641H20.573L20.5813 43.0589L20.5896 42.1908L20.9569 42.1823L21.3242 42.1738V42.0842V41.9945H20.4802H19.6362V42.0851ZM34.0779 42.9648V43.9351L34.6171 43.919L35.1563 43.9029L35.316 43.8263C35.4832 43.7461 35.6549 43.6029 35.74 43.4726C35.7984 43.3831 35.891 43.0528 35.8905 42.9356C35.8903 42.8913 35.869 42.7871 35.8431 42.7041C35.7357 42.3597 35.6257 42.2243 35.3371 42.0818L35.1605 41.9945H34.6192H34.0779V42.9648ZM50.8639 42.0851V42.1757H51.2078H51.5517V43.0513V43.9269H51.6767H51.8017V43.0513V42.1757H52.1577H52.5136L52.5273 42.0851L52.5411 41.9945H51.7025H50.8639V42.0851ZM58.5224 42.9607V43.9269H58.6474H58.7725V42.9607V41.9945H58.6474H58.5224V42.9607ZM31.4322 42.1949L31.5146 42.2745V42.3868V42.499L31.4394 42.5714C31.3135 42.6925 31.2697 42.7197 31.1698 42.739L31.0739 42.7575L31.0129 42.6943C30.9794 42.6596 30.9519 42.6181 30.9519 42.6022C30.9519 42.5863 30.937 42.5685 30.9188 42.5626C30.8708 42.5471 30.8749 42.3181 30.9246 42.2412C30.9479 42.2052 30.9847 42.1757 31.0064 42.1757C31.028 42.1757 31.0457 42.1621 31.0457 42.1455V42.1153H31.1978H31.3498L31.4322 42.1949ZM61.014 42.2321C61.1713 42.3102 61.2828 42.4301 61.3673 42.6119L61.4367 42.7613L61.4227 43.0178L61.4088 43.2743L61.3723 43.2861C61.3522 43.2926 61.3357 43.3161 61.3357 43.3384C61.3357 43.3999 61.1841 43.5607 61.0414 43.6504L60.9137 43.7306H60.6324H60.3511L60.2573 43.6713C60.1048 43.5747 59.9571 43.4111 59.8899 43.2642L59.827 43.1268L59.8279 42.9456L59.8289 42.7645L59.8908 42.6271C59.9941 42.398 60.2018 42.2245 60.4448 42.1643C60.4792 42.1558 60.5947 42.1543 60.7014 42.161L60.8955 42.1732L61.014 42.2321ZM5.37318 42.2285C5.50593 42.2878 5.53372 42.3099 5.60996 42.4164L5.66339 42.4911V42.623V42.7548L5.57742 42.8722C5.53013 42.9368 5.47505 42.9899 5.45498 42.9903C5.43495 42.9906 5.41288 43.0072 5.406 43.0272L5.39346 43.0635L4.95796 43.0649L4.52243 43.0664L4.51377 42.6211L4.50515 42.1757H4.88H5.25489L5.37318 42.2285ZM25.7793 42.2232C26.1606 42.3771 26.1842 42.8099 25.8228 43.0197L25.7473 43.0635L25.3331 43.076L24.919 43.0885V42.6321V42.1757H25.2902H25.6615L25.7793 42.2232ZM35.0312 42.2082C35.1 42.226 35.2226 42.2834 35.3038 42.3359L35.4513 42.4314L35.507 42.5375C35.5376 42.5959 35.5753 42.6525 35.5907 42.6633C35.6061 42.6741 35.6195 42.8007 35.6205 42.9446L35.6222 43.2063L35.5888 43.2269C35.5705 43.2383 35.5456 43.2779 35.5337 43.315C35.5217 43.3521 35.4581 43.4349 35.3923 43.4991L35.2727 43.6158L35.1148 43.6657L34.957 43.7156H34.6458H34.3346L34.3156 43.6678C34.3052 43.6415 34.2967 43.3166 34.2967 42.9456C34.2967 42.5747 34.3052 42.2497 34.3156 42.2235L34.3346 42.1757L34.6204 42.1759C34.7776 42.176 34.9625 42.1905 35.0312 42.2082ZM56.9034 42.2226C57.0819 42.2814 57.2852 42.4471 57.3575 42.5928L57.4127 42.7041V42.9884V43.2727L57.3736 43.2853C57.3522 43.2922 57.3346 43.3156 57.3346 43.3371C57.3346 43.3986 57.0943 43.5929 56.9387 43.6573L56.798 43.7156H56.4724H56.1467V42.9456V42.1757H56.4538H56.7608L56.9034 42.2226ZM2.67696 42.6997C2.73779 42.8218 2.78755 42.9373 2.78755 42.9563C2.78755 42.9754 2.80162 42.9909 2.81881 42.9909C2.83601 42.9909 2.85007 43.0096 2.85007 43.0324C2.85007 43.0552 2.87893 43.1368 2.91422 43.2139C2.94948 43.2909 2.96976 43.3674 2.95926 43.3838L2.94016 43.4136H2.56946C2.19817 43.4136 2.09986 43.4003 2.09986 43.3501C2.09986 43.3353 2.14074 43.2383 2.19076 43.1344C2.24074 43.0306 2.33202 42.8403 2.3936 42.7116C2.45521 42.5829 2.51926 42.4776 2.53598 42.4776C2.55271 42.4776 2.61616 42.5776 2.67696 42.6997ZM31.3812 43.3063L31.6813 43.5916L31.6429 43.6363C31.5936 43.6937 31.344 43.776 31.2199 43.7758C30.8966 43.7752 30.6552 43.5671 30.7143 43.3398C30.7439 43.226 30.9591 43.0255 31.0555 43.022C31.0695 43.0215 31.2161 43.1495 31.3812 43.3063Z" fill="#8E8E8E"/>
</svg>
