<svg width="188" height="176" viewBox="0 0 188 176" fill="none" xmlns="http://www.w3.org/2000/svg">
<g id="Group 46">
<circle id="Ellipse 253" cx="4" cy="4" r="4" fill="#8D11CC"/>
<circle id="Ellipse 269" cx="4" cy="16" r="4" fill="#8D11CC"/>
<circle id="Ellipse 285" cx="4" cy="28" r="4" fill="#8D11CC"/>
<circle id="Ellipse 301" cx="4" cy="40" r="4" fill="#8D11CC"/>
<circle id="Ellipse 317" cx="4" cy="52" r="4" fill="#8D11CC"/>
<circle id="Ellipse 333" cx="4" cy="64" r="4" fill="#8D11CC"/>
<circle id="Ellipse 349" cx="4" cy="76" r="4" fill="#8D11CC"/>
<circle id="Ellipse 365" cx="4" cy="88" r="4" fill="#8D11CC"/>
<circle id="Ellipse 381" cx="4" cy="100" r="4" fill="#8D11CC"/>
<circle id="Ellipse 397" cx="4" cy="112" r="4" fill="#8D11CC"/>
<circle id="Ellipse 413" cx="4" cy="124" r="4" fill="#8D11CC"/>
<circle id="Ellipse 429" cx="4" cy="136" r="4" fill="#8D11CC"/>
<circle id="Ellipse 445" cx="4" cy="148" r="4" fill="#8D11CC"/>
<circle id="Ellipse 461" cx="4" cy="160" r="4" fill="#8D11CC"/>
<circle id="Ellipse 477" cx="4" cy="172" r="4" fill="#8D11CC"/>
<circle id="Ellipse 257" cx="52" cy="4" r="4" fill="#8D11CC"/>
<circle id="Ellipse 270" cx="52" cy="16" r="4" fill="#8D11CC"/>
<circle id="Ellipse 286" cx="52" cy="28" r="4" fill="#8D11CC"/>
<circle id="Ellipse 302" cx="52" cy="40" r="4" fill="#8D11CC"/>
<circle id="Ellipse 318" cx="52" cy="52" r="4" fill="#8D11CC"/>
<circle id="Ellipse 334" cx="52" cy="64" r="4" fill="#8D11CC"/>
<circle id="Ellipse 350" cx="52" cy="76" r="4" fill="#8D11CC"/>
<circle id="Ellipse 366" cx="52" cy="88" r="4" fill="#8D11CC"/>
<circle id="Ellipse 382" cx="52" cy="100" r="4" fill="#8D11CC"/>
<circle id="Ellipse 398" cx="52" cy="112" r="4" fill="#8D11CC"/>
<circle id="Ellipse 414" cx="52" cy="124" r="4" fill="#8D11CC"/>
<circle id="Ellipse 430" cx="52" cy="136" r="4" fill="#8D11CC"/>
<circle id="Ellipse 446" cx="52" cy="148" r="4" fill="#8D11CC"/>
<circle id="Ellipse 462" cx="52" cy="160" r="4" fill="#8D11CC"/>
<circle id="Ellipse 478" cx="52" cy="172" r="4" fill="#8D11CC"/>
<circle id="Ellipse 254" cx="16" cy="4" r="4" fill="#8D11CC"/>
<circle id="Ellipse 271" cx="16" cy="16" r="4" fill="#8D11CC"/>
<circle id="Ellipse 287" cx="16" cy="28" r="4" fill="#8D11CC"/>
<circle id="Ellipse 303" cx="16" cy="40" r="4" fill="#8D11CC"/>
<circle id="Ellipse 319" cx="16" cy="52" r="4" fill="#8D11CC"/>
<circle id="Ellipse 335" cx="16" cy="64" r="4" fill="#8D11CC"/>
<circle id="Ellipse 351" cx="16" cy="76" r="4" fill="#8D11CC"/>
<circle id="Ellipse 367" cx="16" cy="88" r="4" fill="#8D11CC"/>
<circle id="Ellipse 383" cx="16" cy="100" r="4" fill="#8D11CC"/>
<circle id="Ellipse 399" cx="16" cy="112" r="4" fill="#8D11CC"/>
<circle id="Ellipse 415" cx="16" cy="124" r="4" fill="#8D11CC"/>
<circle id="Ellipse 431" cx="16" cy="136" r="4" fill="#8D11CC"/>
<circle id="Ellipse 447" cx="16" cy="148" r="4" fill="#8D11CC"/>
<circle id="Ellipse 463" cx="16" cy="160" r="4" fill="#8D11CC"/>
<circle id="Ellipse 479" cx="16" cy="172" r="4" fill="#8D11CC"/>
<circle id="Ellipse 258" cx="64" cy="4" r="4" fill="#8D11CC"/>
<circle id="Ellipse 272" cx="64" cy="16" r="4" fill="#8D11CC"/>
<circle id="Ellipse 288" cx="64" cy="28" r="4" fill="#8D11CC"/>
<circle id="Ellipse 304" cx="64" cy="40" r="4" fill="#8D11CC"/>
<circle id="Ellipse 320" cx="64" cy="52" r="4" fill="#8D11CC"/>
<circle id="Ellipse 336" cx="64" cy="64" r="4" fill="#8D11CC"/>
<circle id="Ellipse 352" cx="64" cy="76" r="4" fill="#8D11CC"/>
<circle id="Ellipse 368" cx="64" cy="88" r="4" fill="#8D11CC"/>
<circle id="Ellipse 384" cx="64" cy="100" r="4" fill="#8D11CC"/>
<circle id="Ellipse 400" cx="64" cy="112" r="4" fill="#8D11CC"/>
<circle id="Ellipse 416" cx="64" cy="124" r="4" fill="#8D11CC"/>
<circle id="Ellipse 432" cx="64" cy="136" r="4" fill="#8D11CC"/>
<circle id="Ellipse 448" cx="64" cy="148" r="4" fill="#8D11CC"/>
<circle id="Ellipse 464" cx="64" cy="160" r="4" fill="#8D11CC"/>
<circle id="Ellipse 480" cx="64" cy="172" r="4" fill="#8D11CC"/>
<circle id="Ellipse 255" cx="28" cy="4" r="4" fill="#8D11CC"/>
<circle id="Ellipse 273" cx="28" cy="16" r="4" fill="#8D11CC"/>
<circle id="Ellipse 289" cx="28" cy="28" r="4" fill="#8D11CC"/>
<circle id="Ellipse 305" cx="28" cy="40" r="4" fill="#8D11CC"/>
<circle id="Ellipse 321" cx="28" cy="52" r="4" fill="#8D11CC"/>
<circle id="Ellipse 337" cx="28" cy="64" r="4" fill="#8D11CC"/>
<circle id="Ellipse 353" cx="28" cy="76" r="4" fill="#8D11CC"/>
<circle id="Ellipse 369" cx="28" cy="88" r="4" fill="#8D11CC"/>
<circle id="Ellipse 385" cx="28" cy="100" r="4" fill="#8D11CC"/>
<circle id="Ellipse 401" cx="28" cy="112" r="4" fill="#8D11CC"/>
<circle id="Ellipse 417" cx="28" cy="124" r="4" fill="#8D11CC"/>
<circle id="Ellipse 433" cx="28" cy="136" r="4" fill="#8D11CC"/>
<circle id="Ellipse 449" cx="28" cy="148" r="4" fill="#8D11CC"/>
<circle id="Ellipse 465" cx="28" cy="160" r="4" fill="#8D11CC"/>
<circle id="Ellipse 481" cx="28" cy="172" r="4" fill="#8D11CC"/>
<circle id="Ellipse 259" cx="76" cy="4" r="4" fill="#8D11CC"/>
<circle id="Ellipse 274" cx="76" cy="16" r="4" fill="#8D11CC"/>
<circle id="Ellipse 290" cx="76" cy="28" r="4" fill="#8D11CC"/>
<circle id="Ellipse 306" cx="76" cy="40" r="4" fill="#8D11CC"/>
<circle id="Ellipse 322" cx="76" cy="52" r="4" fill="#8D11CC"/>
<circle id="Ellipse 338" cx="76" cy="64" r="4" fill="#8D11CC"/>
<circle id="Ellipse 354" cx="76" cy="76" r="4" fill="#8D11CC"/>
<circle id="Ellipse 370" cx="76" cy="88" r="4" fill="#8D11CC"/>
<circle id="Ellipse 386" cx="76" cy="100" r="4" fill="#8D11CC"/>
<circle id="Ellipse 402" cx="76" cy="112" r="4" fill="#8D11CC"/>
<circle id="Ellipse 418" cx="76" cy="124" r="4" fill="#8D11CC"/>
<circle id="Ellipse 434" cx="76" cy="136" r="4" fill="#8D11CC"/>
<circle id="Ellipse 450" cx="76" cy="148" r="4" fill="#8D11CC"/>
<circle id="Ellipse 466" cx="76" cy="160" r="4" fill="#8D11CC"/>
<circle id="Ellipse 482" cx="76" cy="172" r="4" fill="#8D11CC"/>
<circle id="Ellipse 256" cx="40" cy="4" r="4" fill="#8D11CC"/>
<circle id="Ellipse 275" cx="40" cy="16" r="4" fill="#8D11CC"/>
<circle id="Ellipse 291" cx="40" cy="28" r="4" fill="#8D11CC"/>
<circle id="Ellipse 307" cx="40" cy="40" r="4" fill="#8D11CC"/>
<circle id="Ellipse 323" cx="40" cy="52" r="4" fill="#8D11CC"/>
<circle id="Ellipse 339" cx="40" cy="64" r="4" fill="#8D11CC"/>
<circle id="Ellipse 355" cx="40" cy="76" r="4" fill="#8D11CC"/>
<circle id="Ellipse 371" cx="40" cy="88" r="4" fill="#8D11CC"/>
<circle id="Ellipse 387" cx="40" cy="100" r="4" fill="#8D11CC"/>
<circle id="Ellipse 403" cx="40" cy="112" r="4" fill="#8D11CC"/>
<circle id="Ellipse 419" cx="40" cy="124" r="4" fill="#8D11CC"/>
<circle id="Ellipse 435" cx="40" cy="136" r="4" fill="#8D11CC"/>
<circle id="Ellipse 451" cx="40" cy="148" r="4" fill="#8D11CC"/>
<circle id="Ellipse 467" cx="40" cy="160" r="4" fill="#8D11CC"/>
<circle id="Ellipse 483" cx="40" cy="172" r="4" fill="#8D11CC"/>
<circle id="Ellipse 260" cx="88" cy="4" r="4" fill="#8D11CC"/>
<circle id="Ellipse 276" cx="88" cy="16" r="4" fill="#8D11CC"/>
<circle id="Ellipse 292" cx="88" cy="28" r="4" fill="#8D11CC"/>
<circle id="Ellipse 308" cx="88" cy="40" r="4" fill="#8D11CC"/>
<circle id="Ellipse 324" cx="88" cy="52" r="4" fill="#8D11CC"/>
<circle id="Ellipse 340" cx="88" cy="64" r="4" fill="#8D11CC"/>
<circle id="Ellipse 356" cx="88" cy="76" r="4" fill="#8D11CC"/>
<circle id="Ellipse 372" cx="88" cy="88" r="4" fill="#8D11CC"/>
<circle id="Ellipse 388" cx="88" cy="100" r="4" fill="#8D11CC"/>
<circle id="Ellipse 404" cx="88" cy="112" r="4" fill="#8D11CC"/>
<circle id="Ellipse 420" cx="88" cy="124" r="4" fill="#8D11CC"/>
<circle id="Ellipse 436" cx="88" cy="136" r="4" fill="#8D11CC"/>
<circle id="Ellipse 452" cx="88" cy="148" r="4" fill="#8D11CC"/>
<circle id="Ellipse 468" cx="88" cy="160" r="4" fill="#8D11CC"/>
<circle id="Ellipse 484" cx="88" cy="172" r="4" fill="#8D11CC"/>
<circle id="Ellipse 261" cx="100" cy="4" r="4" fill="#8D11CC"/>
<circle id="Ellipse 277" cx="100" cy="16" r="4" fill="#8D11CC"/>
<circle id="Ellipse 293" cx="100" cy="28" r="4" fill="#8D11CC"/>
<circle id="Ellipse 309" cx="100" cy="40" r="4" fill="#8D11CC"/>
<circle id="Ellipse 325" cx="100" cy="52" r="4" fill="#8D11CC"/>
<circle id="Ellipse 341" cx="100" cy="64" r="4" fill="#8D11CC"/>
<circle id="Ellipse 357" cx="100" cy="76" r="4" fill="#8D11CC"/>
<circle id="Ellipse 373" cx="100" cy="88" r="4" fill="#8D11CC"/>
<circle id="Ellipse 389" cx="100" cy="100" r="4" fill="#8D11CC"/>
<circle id="Ellipse 405" cx="100" cy="112" r="4" fill="#8D11CC"/>
<circle id="Ellipse 421" cx="100" cy="124" r="4" fill="#8D11CC"/>
<circle id="Ellipse 437" cx="100" cy="136" r="4" fill="#8D11CC"/>
<circle id="Ellipse 453" cx="100" cy="148" r="4" fill="#8D11CC"/>
<circle id="Ellipse 469" cx="100" cy="160" r="4" fill="#8D11CC"/>
<circle id="Ellipse 485" cx="100" cy="172" r="4" fill="#8D11CC"/>
<circle id="Ellipse 262" cx="148" cy="4" r="4" fill="#8D11CC"/>
<circle id="Ellipse 278" cx="148" cy="16" r="4" fill="#8D11CC"/>
<circle id="Ellipse 294" cx="148" cy="28" r="4" fill="#8D11CC"/>
<circle id="Ellipse 310" cx="148" cy="40" r="4" fill="#8D11CC"/>
<circle id="Ellipse 326" cx="148" cy="52" r="4" fill="#8D11CC"/>
<circle id="Ellipse 342" cx="148" cy="64" r="4" fill="#8D11CC"/>
<circle id="Ellipse 358" cx="148" cy="76" r="4" fill="#8D11CC"/>
<circle id="Ellipse 374" cx="148" cy="88" r="4" fill="#8D11CC"/>
<circle id="Ellipse 390" cx="148" cy="100" r="4" fill="#8D11CC"/>
<circle id="Ellipse 406" cx="148" cy="112" r="4" fill="#8D11CC"/>
<circle id="Ellipse 422" cx="148" cy="124" r="4" fill="#8D11CC"/>
<circle id="Ellipse 438" cx="148" cy="136" r="4" fill="#8D11CC"/>
<circle id="Ellipse 454" cx="148" cy="148" r="4" fill="#8D11CC"/>
<circle id="Ellipse 470" cx="148" cy="160" r="4" fill="#8D11CC"/>
<circle id="Ellipse 486" cx="148" cy="172" r="4" fill="#8D11CC"/>
<circle id="Ellipse 263" cx="112" cy="4" r="4" fill="#8D11CC"/>
<circle id="Ellipse 279" cx="112" cy="16" r="4" fill="#8D11CC"/>
<circle id="Ellipse 295" cx="112" cy="28" r="4" fill="#8D11CC"/>
<circle id="Ellipse 311" cx="112" cy="40" r="4" fill="#8D11CC"/>
<circle id="Ellipse 327" cx="112" cy="52" r="4" fill="#8D11CC"/>
<circle id="Ellipse 343" cx="112" cy="64" r="4" fill="#8D11CC"/>
<circle id="Ellipse 359" cx="112" cy="76" r="4" fill="#8D11CC"/>
<circle id="Ellipse 375" cx="112" cy="88" r="4" fill="#8D11CC"/>
<circle id="Ellipse 391" cx="112" cy="100" r="4" fill="#8D11CC"/>
<circle id="Ellipse 407" cx="112" cy="112" r="4" fill="#8D11CC"/>
<circle id="Ellipse 423" cx="112" cy="124" r="4" fill="#8D11CC"/>
<circle id="Ellipse 439" cx="112" cy="136" r="4" fill="#8D11CC"/>
<circle id="Ellipse 455" cx="112" cy="148" r="4" fill="#8D11CC"/>
<circle id="Ellipse 471" cx="112" cy="160" r="4" fill="#8D11CC"/>
<circle id="Ellipse 487" cx="112" cy="172" r="4" fill="#8D11CC"/>
<circle id="Ellipse 264" cx="160" cy="4" r="4" fill="#8D11CC"/>
<circle id="Ellipse 280" cx="160" cy="16" r="4" fill="#8D11CC"/>
<circle id="Ellipse 296" cx="160" cy="28" r="4" fill="#8D11CC"/>
<circle id="Ellipse 312" cx="160" cy="40" r="4" fill="#8D11CC"/>
<circle id="Ellipse 328" cx="160" cy="52" r="4" fill="#8D11CC"/>
<circle id="Ellipse 344" cx="160" cy="64" r="4" fill="#8D11CC"/>
<circle id="Ellipse 360" cx="160" cy="76" r="4" fill="#8D11CC"/>
<circle id="Ellipse 376" cx="160" cy="88" r="4" fill="#8D11CC"/>
<circle id="Ellipse 392" cx="160" cy="100" r="4" fill="#8D11CC"/>
<circle id="Ellipse 408" cx="160" cy="112" r="4" fill="#8D11CC"/>
<circle id="Ellipse 424" cx="160" cy="124" r="4" fill="#8D11CC"/>
<circle id="Ellipse 440" cx="160" cy="136" r="4" fill="#8D11CC"/>
<circle id="Ellipse 456" cx="160" cy="148" r="4" fill="#8D11CC"/>
<circle id="Ellipse 472" cx="160" cy="160" r="4" fill="#8D11CC"/>
<circle id="Ellipse 488" cx="160" cy="172" r="4" fill="#8D11CC"/>
<circle id="Ellipse 265" cx="124" cy="4" r="4" fill="#8D11CC"/>
<circle id="Ellipse 281" cx="124" cy="16" r="4" fill="#8D11CC"/>
<circle id="Ellipse 297" cx="124" cy="28" r="4" fill="#8D11CC"/>
<circle id="Ellipse 313" cx="124" cy="40" r="4" fill="#8D11CC"/>
<circle id="Ellipse 329" cx="124" cy="52" r="4" fill="#8D11CC"/>
<circle id="Ellipse 345" cx="124" cy="64" r="4" fill="#8D11CC"/>
<circle id="Ellipse 361" cx="124" cy="76" r="4" fill="#8D11CC"/>
<circle id="Ellipse 377" cx="124" cy="88" r="4" fill="#8D11CC"/>
<circle id="Ellipse 393" cx="124" cy="100" r="4" fill="#8D11CC"/>
<circle id="Ellipse 409" cx="124" cy="112" r="4" fill="#8D11CC"/>
<circle id="Ellipse 425" cx="124" cy="124" r="4" fill="#8D11CC"/>
<circle id="Ellipse 441" cx="124" cy="136" r="4" fill="#8D11CC"/>
<circle id="Ellipse 457" cx="124" cy="148" r="4" fill="#8D11CC"/>
<circle id="Ellipse 473" cx="124" cy="160" r="4" fill="#8D11CC"/>
<circle id="Ellipse 489" cx="124" cy="172" r="4" fill="#8D11CC"/>
<circle id="Ellipse 266" cx="172" cy="4" r="4" fill="#8D11CC"/>
<circle id="Ellipse 282" cx="172" cy="16" r="4" fill="#8D11CC"/>
<circle id="Ellipse 298" cx="172" cy="28" r="4" fill="#8D11CC"/>
<circle id="Ellipse 314" cx="172" cy="40" r="4" fill="#8D11CC"/>
<circle id="Ellipse 330" cx="172" cy="52" r="4" fill="#8D11CC"/>
<circle id="Ellipse 346" cx="172" cy="64" r="4" fill="#8D11CC"/>
<circle id="Ellipse 362" cx="172" cy="76" r="4" fill="#8D11CC"/>
<circle id="Ellipse 378" cx="172" cy="88" r="4" fill="#8D11CC"/>
<circle id="Ellipse 394" cx="172" cy="100" r="4" fill="#8D11CC"/>
<circle id="Ellipse 410" cx="172" cy="112" r="4" fill="#8D11CC"/>
<circle id="Ellipse 426" cx="172" cy="124" r="4" fill="#8D11CC"/>
<circle id="Ellipse 442" cx="172" cy="136" r="4" fill="#8D11CC"/>
<circle id="Ellipse 458" cx="172" cy="148" r="4" fill="#8D11CC"/>
<circle id="Ellipse 474" cx="172" cy="160" r="4" fill="#8D11CC"/>
<circle id="Ellipse 490" cx="172" cy="172" r="4" fill="#8D11CC"/>
<circle id="Ellipse 267" cx="136" cy="4" r="4" fill="#8D11CC"/>
<circle id="Ellipse 283" cx="136" cy="16" r="4" fill="#8D11CC"/>
<circle id="Ellipse 299" cx="136" cy="28" r="4" fill="#8D11CC"/>
<circle id="Ellipse 315" cx="136" cy="40" r="4" fill="#8D11CC"/>
<circle id="Ellipse 331" cx="136" cy="52" r="4" fill="#8D11CC"/>
<circle id="Ellipse 347" cx="136" cy="64" r="4" fill="#8D11CC"/>
<circle id="Ellipse 363" cx="136" cy="76" r="4" fill="#8D11CC"/>
<circle id="Ellipse 379" cx="136" cy="88" r="4" fill="#8D11CC"/>
<circle id="Ellipse 395" cx="136" cy="100" r="4" fill="#8D11CC"/>
<circle id="Ellipse 411" cx="136" cy="112" r="4" fill="#8D11CC"/>
<circle id="Ellipse 427" cx="136" cy="124" r="4" fill="#8D11CC"/>
<circle id="Ellipse 443" cx="136" cy="136" r="4" fill="#8D11CC"/>
<circle id="Ellipse 459" cx="136" cy="148" r="4" fill="#8D11CC"/>
<circle id="Ellipse 475" cx="136" cy="160" r="4" fill="#8D11CC"/>
<circle id="Ellipse 491" cx="136" cy="172" r="4" fill="#8D11CC"/>
<circle id="Ellipse 268" cx="184" cy="4" r="4" fill="#8D11CC"/>
<circle id="Ellipse 284" cx="184" cy="16" r="4" fill="#8D11CC"/>
<circle id="Ellipse 300" cx="184" cy="28" r="4" fill="#8D11CC"/>
<circle id="Ellipse 316" cx="184" cy="40" r="4" fill="#8D11CC"/>
<circle id="Ellipse 332" cx="184" cy="52" r="4" fill="#8D11CC"/>
<circle id="Ellipse 348" cx="184" cy="64" r="4" fill="#8D11CC"/>
<circle id="Ellipse 364" cx="184" cy="76" r="4" fill="#8D11CC"/>
<circle id="Ellipse 380" cx="184" cy="88" r="4" fill="#8D11CC"/>
<circle id="Ellipse 396" cx="184" cy="100" r="4" fill="#8D11CC"/>
<circle id="Ellipse 412" cx="184" cy="112" r="4" fill="#8D11CC"/>
<circle id="Ellipse 428" cx="184" cy="124" r="4" fill="#8D11CC"/>
<circle id="Ellipse 444" cx="184" cy="136" r="4" fill="#8D11CC"/>
<circle id="Ellipse 460" cx="184" cy="148" r="4" fill="#8D11CC"/>
<circle id="Ellipse 476" cx="184" cy="160" r="4" fill="#8D11CC"/>
<circle id="Ellipse 492" cx="184" cy="172" r="4" fill="#8D11CC"/>
</g>
</svg>
