<svg width="80" height="18" viewBox="0 0 80 18" fill="none" xmlns="http://www.w3.org/2000/svg">
<g id="Vector">
<path d="M21.2761 17.628C21.258 17.5837 23.1191 13.5975 25.4049 8.76086C27.6996 3.92426 29.6239 -0.017657 29.6691 5.94856e-05C29.7233 0.017776 31.6296 3.95969 33.8972 8.752C36.1739 13.5443 38.035 17.5217 38.035 17.5837C38.035 17.6634 37.6917 17.69 35.1892 17.6811L32.4337 11.7107C30.9159 8.4331 29.651 5.76677 29.6239 5.80221C29.5878 5.83764 28.332 8.53054 24.0768 17.6988L22.7036 17.69C21.9447 17.69 21.3032 17.6634 21.2761 17.628Z" fill="#8E8E8E"/>
<path d="M8.131 9.58467C8.131 9.54038 8.99831 7.37011 10.0553 4.77465C11.4195 1.40852 12.0068 0.0709254 12.0971 0.0797836C12.1784 0.0975001 13.38 2.93214 18.2767 14.8996L17.6443 16.4498C17.2919 17.3002 16.9577 18 16.8944 18C16.8312 18 16.3975 17.0433 15.9006 15.8297C15.4218 14.6339 14.3828 12.0738 13.6059 10.1427C12.8289 8.20279 12.1604 6.61716 12.1062 6.61716C12.061 6.61716 11.4647 7.99019 10.7962 9.67326C10.1095 11.3829 9.53134 12.7205 9.47713 12.7116C9.42292 12.6939 9.08865 12.0118 8.75438 11.1792C8.41107 10.3553 8.131 9.63782 8.131 9.58467Z" fill="#8E8E8E"/>
<path d="M3.60474 9.31893C1.61717 4.54434 0 0.566987 0 0.478404C0 0.336673 0.117448 0.327814 2.81875 0.372106L5.74591 7.54728C7.35404 11.4981 8.67307 14.7845 8.67307 14.8553C8.66403 14.9262 8.38396 15.6703 8.04969 16.4941C7.70638 17.3268 7.38114 18 7.3179 18C7.25466 18 5.65556 14.2618 3.60474 9.31893Z" fill="#8E8E8E"/>
<path d="M19.4602 5.15555C20.463 2.67525 21.3123 0.566987 21.3484 0.487263C21.4026 0.345531 21.5562 0.327814 22.812 0.327814C24.0858 0.327814 24.2123 0.345531 24.2123 0.487263C24.2123 0.566987 23.083 3.36619 21.6917 6.70575C20.1107 10.5236 19.135 12.7736 19.0536 12.7736C18.9814 12.7736 18.6742 12.1536 17.6352 9.67326L19.4602 5.15555Z" fill="#8E8E8E"/>
<path d="M38.83 9.0709C38.821 4.32288 38.8481 0.416397 38.8933 0.389822C38.9385 0.354389 39.5347 0.327814 40.2213 0.327814C41.441 0.327814 41.4681 0.336673 41.5133 0.531554C41.5404 0.637853 41.5494 4.53548 41.5133 17.6457L38.8481 17.69L38.83 9.0709Z" fill="#8E8E8E"/>
<path d="M49.4907 9.0709C49.4816 4.32288 49.5088 0.416397 49.5539 0.389822C49.5991 0.354389 50.1954 0.327814 50.882 0.327814C52.1016 0.327814 52.1287 0.336673 52.1739 0.531554C52.201 0.637853 52.21 4.53548 52.1739 17.6457L49.5088 17.69L49.4907 9.0709Z" fill="#8E8E8E"/>
<path d="M64.8492 9.0709C64.8402 4.32288 64.8763 0.416397 64.9125 0.380964C64.9576 0.354389 65.563 0.336673 67.5325 0.372106V17.6457L64.8673 17.69L64.8492 9.0709Z" fill="#8E8E8E"/>
<path d="M68.2372 1.75399C68.2281 1.09848 68.2372 0.504979 68.2552 0.442971C68.2914 0.345531 69.3936 0.327814 80 0.372106V2.94099H68.2552L68.2372 1.75399Z" fill="#8E8E8E"/>
<path d="M72.7995 10.9754C72.7905 7.28153 72.8267 4.22544 72.8628 4.19001C72.908 4.16343 73.5133 4.14572 75.4828 4.18115V17.6457L72.8176 17.69L72.7995 10.9754Z" fill="#8E8E8E"/>
<path d="M57.8295 8.61027C58.0011 8.2648 58.1366 8.12306 58.4529 7.96362C58.6787 7.85732 58.9407 7.76873 59.0401 7.76873C59.1395 7.76873 59.3653 7.80417 59.537 7.85732C59.7086 7.90161 59.9797 8.06991 60.1423 8.22936C60.2959 8.38881 60.4675 8.66342 60.5127 8.83172C60.5669 9.0266 60.5759 9.27464 60.5217 9.49609C60.4766 9.69097 60.3772 9.939 60.3049 10.0542C60.2326 10.1605 60.079 10.311 59.9706 10.3819C59.8532 10.4528 59.6183 10.5502 59.4466 10.5857C59.275 10.6299 58.9678 10.6299 58.7691 10.5945C58.5161 10.5414 58.3083 10.4173 58.0734 10.1605C57.8295 9.91243 57.712 9.69097 57.6759 9.43408C57.6217 9.1329 57.6578 8.95574 57.8295 8.61027Z" fill="#8E8E8E"/>
<path d="M42.76 16.4587C42.751 15.8032 42.76 15.2097 42.7781 15.1476C42.8142 15.0502 43.3834 15.0325 48.5601 15.0768V17.6457H42.7781L42.76 16.4587Z" fill="#8E8E8E"/>
<path d="M53.4207 16.4587C53.4116 15.8032 53.4207 15.2097 53.4387 15.1476C53.4749 15.0502 54.044 15.0325 59.2208 15.0768V17.6457H53.4387L53.4207 16.4587Z" fill="#8E8E8E"/>
</g>
</svg>
