<svg width="20" height="21" viewBox="0 0 20 21" fill="none" xmlns="http://www.w3.org/2000/svg">
<g id="CaretRight">
<path id="Vector" d="M9.55795 14.6922L3.30795 8.4422C3.24988 8.38413 3.20382 8.31519 3.17239 8.23932C3.14097 8.16345 3.12479 8.08213 3.12479 8.00001C3.12479 7.91789 3.14097 7.83657 3.17239 7.7607C3.20382 7.68483 3.24988 7.61589 3.30795 7.55782C3.36602 7.49976 3.43496 7.45369 3.51083 7.42227C3.5867 7.39084 3.66802 7.37466 3.75014 7.37466C3.83226 7.37466 3.91358 7.39084 3.98945 7.42227C4.06532 7.45369 4.13426 7.49976 4.19233 7.55782L10.0001 13.3664L15.808 7.55782C15.9252 7.44055 16.0843 7.37466 16.2501 7.37466C16.416 7.37466 16.5751 7.44055 16.6923 7.55782C16.8096 7.6751 16.8755 7.83416 16.8755 8.00001C16.8755 8.16586 16.8096 8.32492 16.6923 8.4422L10.4423 14.6922C10.3843 14.7503 10.3154 14.7964 10.2395 14.8279C10.1636 14.8593 10.0823 14.8755 10.0001 14.8755C9.91801 14.8755 9.83668 14.8593 9.7608 14.8279C9.68493 14.7964 9.616 14.7503 9.55795 14.6922Z" fill="black"/>
</g>
</svg>
