<svg width="16" height="20" viewBox="0 0 16 20" fill="none" xmlns="http://www.w3.org/2000/svg">
<g id="Group">
<path id="Vector" d="M4.5 8.5H11.5M4.5 15.5H11.5M4.5 12H8M1 18.475V2.025C1 1.88576 1.05531 1.75223 1.15377 1.65377C1.25223 1.55531 1.38576 1.5 1.525 1.5H11.7205C11.8597 1.50012 11.9931 1.55552 12.0915 1.654L14.846 4.4085C14.895 4.45741 14.9338 4.51553 14.9602 4.5795C14.9866 4.64347 15.0002 4.71203 15 4.78125V18.475C15 18.5439 14.9864 18.6122 14.96 18.6759C14.9337 18.7396 14.895 18.7975 14.8462 18.8462C14.7975 18.895 14.7396 18.9337 14.6759 18.96C14.6122 18.9864 14.5439 19 14.475 19H1.525C1.45606 19 1.38779 18.9864 1.32409 18.96C1.2604 18.9337 1.20252 18.895 1.15377 18.8462C1.10502 18.7975 1.06635 18.7396 1.03996 18.6759C1.01358 18.6122 1 18.5439 1 18.475Z" stroke="black" stroke-width="1.5" stroke-linecap="round" stroke-linejoin="round"/>
<path id="Vector_2" d="M11.5 1.5V4.475C11.5 4.61424 11.5553 4.74777 11.6538 4.84623C11.7522 4.94469 11.8858 5 12.025 5H15" stroke="black" stroke-width="1.5" stroke-linecap="round" stroke-linejoin="round"/>
</g>
</svg>
