<svg width="32" height="32" viewBox="0 0 32 32" fill="none" xmlns="http://www.w3.org/2000/svg">
<path d="M18.8536 4C17.2036 4 15.6211 4.65549 14.4543 5.82226C13.2875 6.98903 12.6321 8.57151 12.6321 10.2216V13.6855H9.30267C9.13587 13.6855 9 13.82 9 13.9882V18.5618C9 18.7287 9.13452 18.8645 9.30267 18.8645H12.6321V28.2473C12.6321 28.4141 12.7666 28.55 12.9347 28.55H17.5084C17.6752 28.55 17.8111 28.4155 17.8111 28.2473V18.8645H21.1701C21.3086 18.8645 21.4297 18.7704 21.4633 18.6358L22.6068 14.0621C22.618 14.0175 22.6189 13.9709 22.6095 13.9259C22.6 13.8808 22.5804 13.8385 22.5521 13.8022C22.5238 13.7659 22.4876 13.7365 22.4463 13.7163C22.4049 13.696 22.3595 13.6855 22.3135 13.6855H17.8111V10.2216C17.8111 10.0847 17.8381 9.9491 17.8905 9.82261C17.9428 9.69613 18.0196 9.5812 18.1164 9.48439C18.2133 9.38758 18.3282 9.31079 18.4547 9.2584C18.5812 9.20601 18.7167 9.17904 18.8536 9.17904H22.3512C22.518 9.17904 22.6538 9.04452 22.6538 8.87637V4.30267C22.6538 4.13587 22.5193 4 22.3512 4H18.8536Z" fill="#F0F1FA"/>
</svg>
