<svg width="32" height="32" viewBox="0 0 32 32" fill="none" xmlns="http://www.w3.org/2000/svg">
<path d="M15.9993 11.667C14.8501 11.667 13.7479 12.1235 12.9352 12.9362C12.1226 13.7489 11.666 14.8511 11.666 16.0003C11.666 17.1496 12.1226 18.2518 12.9352 19.0645C13.7479 19.8771 14.8501 20.3337 15.9993 20.3337C17.1486 20.3337 18.2508 19.8771 19.0635 19.0645C19.8761 18.2518 20.3327 17.1496 20.3327 16.0003C20.3327 14.8511 19.8761 13.7489 19.0635 12.9362C18.2508 12.1235 17.1486 11.667 15.9993 11.667Z" fill="#F0F1FA"/>
<path fill-rule="evenodd" clip-rule="evenodd" d="M9.02708 4.10893C13.6618 3.5952 18.339 3.5952 22.9737 4.10893C25.5057 4.3916 27.5471 6.38493 27.8444 8.92627C28.394 13.6258 28.394 18.3734 27.8444 23.0729C27.5471 25.6143 25.5057 27.6076 22.9751 27.8916C18.3399 28.4055 13.6622 28.4055 9.02708 27.8916C6.49508 27.6076 4.45375 25.6143 4.15641 23.0743C3.60672 18.3743 3.60672 13.6262 4.15641 8.92627C4.45375 6.38493 6.49508 4.3916 9.02708 4.10893ZM22.6671 7.9996C22.3135 7.9996 21.9743 8.14007 21.7243 8.39012C21.4742 8.64017 21.3337 8.97931 21.3337 9.33293C21.3337 9.68655 21.4742 10.0257 21.7243 10.2757C21.9743 10.5258 22.3135 10.6663 22.6671 10.6663C23.0207 10.6663 23.3598 10.5258 23.6099 10.2757C23.8599 10.0257 24.0004 9.68655 24.0004 9.33293C24.0004 8.97931 23.8599 8.64017 23.6099 8.39012C23.3598 8.14007 23.0207 7.9996 22.6671 7.9996ZM9.66708 15.9996C9.66708 14.3199 10.3343 12.709 11.5221 11.5213C12.7098 10.3335 14.3207 9.66627 16.0004 9.66627C17.6801 9.66627 19.291 10.3335 20.4788 11.5213C21.6665 12.709 22.3337 14.3199 22.3337 15.9996C22.3337 17.6793 21.6665 19.2902 20.4788 20.4779C19.291 21.6657 17.6801 22.3329 16.0004 22.3329C14.3207 22.3329 12.7098 21.6657 11.5221 20.4779C10.3343 19.2902 9.66708 17.6793 9.66708 15.9996Z" fill="#F0F1FA"/>
</svg>
