<svg width="32" height="32" viewBox="0 0 32 32" fill="none" xmlns="http://www.w3.org/2000/svg">
<path d="M6.71006 4C5.99131 4 5.302 4.28552 4.79376 4.79376C4.28552 5.302 4 5.99131 4 6.71006C4 7.42882 4.28552 8.11813 4.79376 8.62637C5.302 9.13461 5.99131 9.42013 6.71006 9.42013C7.42882 9.42013 8.11813 9.13461 8.62637 8.62637C9.13461 8.11813 9.42013 7.42882 9.42013 6.71006C9.42013 5.99131 9.13461 5.302 8.62637 4.79376C8.11813 4.28552 7.42882 4 6.71006 4ZM4.15942 11.6519C4.11714 11.6519 4.07659 11.6687 4.04669 11.6986C4.0168 11.7285 4 11.7691 4 11.8114V28.3906C4 28.4786 4.07142 28.55 4.15942 28.55H9.26071C9.30299 28.55 9.34354 28.5332 9.37344 28.5033C9.40333 28.4734 9.42013 28.4329 9.42013 28.3906V11.8114C9.42013 11.7691 9.40333 11.7285 9.37344 11.6986C9.34354 11.6687 9.30299 11.6519 9.26071 11.6519H4.15942ZM12.449 11.6519C12.4067 11.6519 12.3662 11.6687 12.3363 11.6986C12.3064 11.7285 12.2896 11.7691 12.2896 11.8114V28.3906C12.2896 28.4786 12.361 28.55 12.449 28.55H17.5503C17.5926 28.55 17.6332 28.5332 17.663 28.5033C17.6929 28.4734 17.7097 28.4329 17.7097 28.3906V19.4633C17.7097 18.8291 17.9617 18.2209 18.4101 17.7725C18.8586 17.324 19.4668 17.0721 20.101 17.0721C20.7352 17.0721 21.3434 17.324 21.7918 17.7725C22.2403 18.2209 22.4922 18.8291 22.4922 19.4633V28.3906C22.4922 28.4786 22.5636 28.55 22.6516 28.55H27.7529C27.7952 28.55 27.8358 28.5332 27.8656 28.5033C27.8955 28.4734 27.9123 28.4329 27.9123 28.3906V17.3973C27.9123 14.3021 25.2214 11.8815 22.1415 12.1608C21.1885 12.2476 20.2551 12.4834 19.3753 12.8597L17.7097 13.5739V11.8114C17.7097 11.7691 17.6929 11.7285 17.663 11.6986C17.6332 11.6687 17.5926 11.6519 17.5503 11.6519H12.449Z" fill="#F0F1FA"/>
</svg>
