<svg width="32" height="32" viewBox="0 0 32 32" fill="none" xmlns="http://www.w3.org/2000/svg">
<path d="M22.5135 7.84617C21.5811 6.78182 21.0674 5.41494 21.0677 4H16.8533V20.9122C16.8208 21.8274 16.4344 22.6943 15.7755 23.3303C15.1166 23.9663 14.2366 24.3218 13.3209 24.3219C11.3841 24.3219 9.77475 22.7398 9.77475 20.7758C9.77475 18.4299 12.0388 16.6705 14.3711 17.3934V13.0835C9.66564 12.4561 5.54669 16.1113 5.54669 20.7758C5.54669 25.3176 9.31103 28.55 13.3072 28.55C17.5898 28.55 21.0677 25.0721 21.0677 20.7758V12.197C22.7767 13.4243 24.8285 14.0827 26.9325 14.0791V9.86472C26.9325 9.86472 24.3684 9.98747 22.5135 7.84617Z" fill="#F0F1FA"/>
</svg>
